<?xml version="1.0" encoding="utf-8"?>
<!-- Generator: Adobe Illustrator 22.1.0, SVG Export Plug-In . SVG Version: 6.00 Build 0)  -->
<svg version="1.1" id="icons" xmlns="http://www.w3.org/2000/svg" xmlns:xlink="http://www.w3.org/1999/xlink" x="0px" y="0px"
	 viewBox="0 0 98 100.8" style="enable-background:new 0 0 98 100.8;" xml:space="preserve">
<style type="text/css">
	.st0{fill:#505050;}
</style>
<path class="st0" d="M47.2,87.3c-18.6,0-33.8-15.1-33.8-33.8s15.1-33.8,33.8-33.8S81,34.9,81,53.6S65.9,87.3,47.2,87.3z M47.2,24.3
	C31.1,24.3,18,37.4,18,53.6s13.1,29.3,29.3,29.3s29.3-13.1,29.3-29.3S63.4,24.3,47.2,24.3z M66.8,39.4l-3.2-3.2L47.4,52.5L40,43.2
	L36.5,46l10.6,13.2L66.8,39.4z M49.5,26.6H45v6.8h4.5V26.6z M49.5,73.8H45v6.8h4.5V73.8z M27,51.3h-6.8v4.5H27V51.3z M74.3,51.3
	h-6.8v4.5h6.8V51.3z M94.5,53.6c0-23.2-17.3-43.3-40.2-46.8l-0.7,4.5C74.4,14.4,90,32.6,90,53.6c0,7.5-2,14.9-5.7,21.4l3.9,2.3
	C92.3,70.1,94.5,61.9,94.5,53.6z M98,73.7l-1.7-4.2l-8.8,3.6l-3.3-8L80,66.9L85,79L98,73.7z M7.4,69.6c-7.7-19.5,0.3-42.1,18.5-52.6
	c6.5-3.8,13.8-5.7,21.4-5.7l0-4.5c0,0,0,0,0,0C39,6.7,30.8,8.9,23.6,13C3.5,24.6-5.3,49.6,3.2,71.2L7.4,69.6z M50.4,8.5L39.3,0
	l-2.7,3.6l7.5,5.8l-5.3,6.9l3.6,2.7L50.4,8.5z M82.8,83.1l-3.5-2.8c-13.1,16.4-36.6,20.8-54.8,10.3C17.9,86.9,12.5,81.4,8.8,75
	l-3.9,2.2C9,84.4,15,90.4,22.2,94.5c7.3,4.2,15.4,6.3,23.5,6.3C59.7,100.8,73.6,94.6,82.8,83.1z M8.8,78.6l8.6,1.1l0.6-4.5l-13-1.7
	L3.1,87.4L7.5,88L8.8,78.6z"/>
</svg>
