<svg width="80" height="83" viewBox="0 0 80 83" fill="none" xmlns="http://www.w3.org/2000/svg">
<path d="M38.5306 71.8839C23.3469 71.8839 10.9387 59.4504 10.9387 44.0526C10.9387 28.6548 23.2653 16.2212 38.5306 16.2212C53.7959 16.2212 66.1224 28.7371 66.1224 44.1349C66.1224 59.5327 53.7959 71.8839 38.5306 71.8839ZM38.5306 20.0089C25.3877 20.0089 14.6938 30.7956 14.6938 44.1349C14.6938 57.4742 25.3877 68.2609 38.6122 68.2609C51.8367 68.2609 62.5306 57.4742 62.5306 44.1349C62.5306 30.7956 51.7551 20.0089 38.5306 20.0089ZM54.5306 32.4425L51.9183 29.8075L38.6938 43.2292L32.653 35.5714L29.7959 37.877L38.4489 48.746L54.5306 32.4425ZM40.4081 21.9028H36.7347V27.502H40.4081V21.9028ZM40.4081 60.7679H36.7347V66.3671H40.4081V60.7679ZM22.0408 42.2411H16.4898V45.9464H22.0408V42.2411ZM60.653 42.2411H55.102V45.9464H60.653V42.2411ZM77.1428 44.1349C77.1428 25.0317 63.0204 8.48115 44.3265 5.59921L43.7551 9.30456C60.7347 11.8571 73.4694 26.8433 73.4694 44.1349C73.4694 50.3105 71.8367 56.4038 68.8163 61.756L72 63.6498C75.3469 57.7212 77.1428 50.9692 77.1428 44.1349ZM80 60.6855L78.6122 57.2272L71.4285 60.1915L68.7347 53.6042L65.3061 55.0863L69.3877 65.0496L80 60.6855ZM6.04079 57.3095C-0.244926 41.253 6.28568 22.6438 21.1428 13.998C26.4489 10.869 32.4081 9.30456 38.6122 9.30456V5.59921C31.8367 5.51686 25.1428 7.32837 19.2653 10.7044C2.85711 20.256 -4.32656 40.8413 2.61222 58.627L6.04079 57.3095ZM41.1428 6.99901L32.0816 0L29.8775 2.96429L36 7.74008L31.6734 13.4216L34.6122 15.6448L41.1428 6.99901ZM67.5918 68.4256L64.7347 66.12C54.0408 79.624 34.8571 83.247 20 74.6012C14.6122 71.5546 10.2041 67.0258 7.18364 61.756L3.99997 63.5675C7.34691 69.496 12.2449 74.4365 18.1224 77.8125C24.0816 81.2708 30.6938 83 37.3061 83C48.7347 83 60.0816 77.8948 67.5918 68.4256ZM7.18364 64.7202L14.2041 65.626L14.6938 61.9206L4.0816 60.5208L2.53058 71.9663L6.12242 72.4603L7.18364 64.7202Z" fill="#FF4500"/>
</svg>
