<svg width="80" height="90" viewBox="0 0 80 90" fill="none" xmlns="http://www.w3.org/2000/svg">
<path d="M37.1831 25.4326C39.1952 24.7887 43.3803 24.1449 48.3702 24.1449C54.2455 24.1449 59.0744 24.9497 60.4427 25.7545C61.006 26.0765 61.7304 26.1569 62.2938 25.7545C62.8571 25.4326 63.2596 24.7887 63.2596 24.1449V5.6338C63.2596 4.98994 62.9376 4.34608 62.3742 4.02414C59.8793 2.49497 53.6016 1.85111 48.3702 1.85111C44.5875 1.85111 40.2414 2.17304 37.1831 2.97787V0H33.4809V5.6338V24.2254V53.9235H37.1831V25.4326ZM37.1831 6.84105C39.1952 6.19718 43.3803 5.55332 48.3702 5.55332C53.2797 5.55332 57.5453 6.1167 59.5573 6.84105V21.5694C56.499 20.7646 52.1529 20.4427 48.3702 20.4427C44.5875 20.4427 40.2414 20.7646 37.1831 21.5694V6.84105ZM65.996 36.2978C69.0543 41.6097 70.7445 47.7264 70.7445 54.004C70.7445 73.4809 54.8893 89.336 35.4125 89.336C15.9356 89.336 0 73.4809 0 54.004C0 36.7002 12.3944 21.9718 29.4567 19.1549L30.1006 22.8571C14.8089 25.4326 3.70221 38.5513 3.70221 54.0845C3.70221 71.5493 17.8672 85.7143 35.332 85.7143C52.7968 85.7143 66.9618 71.5493 66.9618 54.0845C66.9618 48.5312 65.5131 43.0583 62.6962 38.3099L65.996 36.2978ZM26.0765 54.004C26.0765 59.1549 30.2616 63.34 35.4125 63.34C40.5634 63.34 44.7485 59.1549 44.7485 54.004C44.7485 50.0604 42.2535 46.5191 38.5513 45.2314L39.7586 41.6901C44.9899 43.5412 48.4507 48.4507 48.4507 54.004C48.4507 61.167 42.5755 67.0423 35.4125 67.0423C28.2495 67.0423 22.2938 61.167 22.2938 54.004C22.2938 48.5312 25.7545 43.5412 30.9859 41.6901L32.1932 45.2314C28.5714 46.5191 26.0765 50.0604 26.0765 54.004ZM31.3078 30.1006L31.9517 33.8028C22.0523 35.4125 14.8893 43.9437 14.8893 54.004C14.8893 65.2716 24.0644 74.4467 35.332 74.4467C46.5996 74.4467 55.7746 65.2716 55.7746 54.004C55.7746 43.9437 48.6117 35.493 38.7123 33.8028L39.3561 30.1006C51.1066 32.0322 59.5573 42.0926 59.5573 54.004C59.5573 67.3642 48.6922 78.2294 35.332 78.2294C21.9718 78.2294 11.1871 67.2837 11.1871 54.004C11.1871 42.0926 19.6378 32.0322 31.3078 30.1006ZM80 12.3139V30.9054C80 31.7907 79.3561 32.5956 78.4708 32.7565C75.7344 33.2394 72.2736 33.5614 68.8129 33.5614C63.5815 33.5614 57.3038 32.9175 54.8088 31.3883C54.2455 31.0664 53.9235 30.4225 53.9235 29.7787V26.0765H57.6258V28.5714C59.6378 29.2153 63.8229 29.8592 68.8129 29.8592C71.3883 29.8592 74.0443 29.6982 76.2173 29.3763V14.4869C73.9638 14.8089 71.3078 14.9698 68.8129 14.9698C68.169 14.9698 65.674 14.9698 65.0302 14.8893L65.1107 11.1871C65.7545 11.1871 68.169 11.2676 68.8129 11.2676C72.0322 11.2676 75.2515 11.0262 77.7465 10.5433C78.3099 10.4628 78.8732 10.6237 79.2757 10.9457C79.7585 11.2676 80 11.7505 80 12.3139Z" fill="#FF4500"/>
</svg>
