<?xml version="1.0" encoding="utf-8"?>
<!-- Generator: Adobe Illustrator 22.1.0, SVG Export Plug-In . SVG Version: 6.00 Build 0)  -->
<svg version="1.1" id="icons" xmlns="http://www.w3.org/2000/svg" xmlns:xlink="http://www.w3.org/1999/xlink" x="0px" y="0px"
	 viewBox="0 0 99.4 111" style="enable-background:new 0 0 99.4 111;" xml:space="preserve">
<style type="text/css">
	.st0{fill:#505050;}
</style>
<path class="st0" d="M46.2,31.6c2.5-0.8,7.7-1.6,13.9-1.6c7.3,0,13.3,1,15,2c0.7,0.4,1.6,0.5,2.3,0c0.7-0.4,1.2-1.2,1.2-2V7
	c0-0.8-0.4-1.6-1.1-2c-3.1-1.9-10.9-2.7-17.4-2.7c-4.7,0-10.1,0.4-13.9,1.4V0h-4.6v7v23.1v36.9h4.6V31.6z M46.2,8.5
	c2.5-0.8,7.7-1.6,13.9-1.6c6.1,0,11.4,0.7,13.9,1.6v18.3c-3.8-1-9.2-1.4-13.9-1.4c-4.7,0-10.1,0.4-13.9,1.4V8.5z M82,45.1
	c3.8,6.6,5.9,14.2,5.9,22c0,24.2-19.7,43.9-43.9,43.9S0,91.3,0,67.1c0-21.5,15.4-39.8,36.6-43.3l0.8,4.6
	c-19,3.2-32.8,19.5-32.8,38.8c0,21.7,17.6,39.3,39.3,39.3s39.3-17.6,39.3-39.3c0-6.9-1.8-13.7-5.3-19.6L82,45.1z M32.4,67.1
	c0,6.4,5.2,11.6,11.6,11.6s11.6-5.2,11.6-11.6c0-4.9-3.1-9.3-7.7-10.9l1.5-4.4c6.5,2.3,10.8,8.4,10.8,15.3c0,8.9-7.3,16.2-16.2,16.2
	S27.7,76,27.7,67.1c0-6.8,4.3-13,10.8-15.3l1.5,4.4C35.5,57.8,32.4,62.2,32.4,67.1z M38.9,37.4l0.8,4.6C27.4,44,18.5,54.6,18.5,67.1
	c0,14,11.4,25.4,25.4,25.4s25.4-11.4,25.4-25.4c0-12.5-8.9-23-21.2-25.1l0.8-4.6C63.5,39.8,74,52.3,74,67.1
	c0,16.6-13.5,30.1-30.1,30.1S13.9,83.6,13.9,67.1C13.9,52.3,24.4,39.8,38.9,37.4z M99.4,15.3v23.1c0,1.1-0.8,2.1-1.9,2.3
	c-3.4,0.6-7.7,1-12,1c-6.5,0-14.3-0.8-17.4-2.7c-0.7-0.4-1.1-1.2-1.1-2v-4.6h4.6v3.1c2.5,0.8,7.7,1.6,13.9,1.6
	c3.2,0,6.5-0.2,9.2-0.6V18c-2.8,0.4-6.1,0.6-9.2,0.6c-0.8,0-3.9,0-4.7-0.1l0.1-4.6c0.8,0,3.8,0.1,4.6,0.1c4,0,8-0.3,11.1-0.9
	c0.7-0.1,1.4,0.1,1.9,0.5C99.1,14,99.4,14.6,99.4,15.3z"/>
</svg>
