<?xml version="1.0" encoding="UTF-8"?><svg id="Layer_2" xmlns="http://www.w3.org/2000/svg" viewBox="0 0 343.2 61.57"><defs><style>.cls-1{fill:#e86848;}.cls-2{fill:#fff;}.cls-3{fill:#d1d3d4;}.cls-4{fill:#231f20;}.cls-5{fill:#1a1617;}</style></defs><g><g><path class="cls-1" d="M0,18.08C.02,8.08,8.16-.02,18.18,0c10.02,.02,18.13,8.15,18.11,18.15-.02,10-8.16,18.1-18.18,18.08C8.09,36.21-.02,28.09,0,18.08"/><polygon class="cls-2" points="15.72 13.57 8.93 4.29 11.83 10.4 6.4 6.35 14.16 14.84 4.33 8.87 9.35 13.4 2.79 11.74 13.21 16.61 1.83 14.85 8.21 17.12 1.51 18.09 13.01 18.61 1.82 21.33 8.58 21 2.76 24.45 13.6 20.53 4.29 27.32 10.42 24.43 6.37 29.84 14.87 22.09 8.88 31.9 13.42 26.91 11.75 33.45 16.64 23.04 14.87 34.39 17.07 28.04 18.12 34.72 18.14 23.26 21.35 34.41 21.02 27.67 24.48 33.47 20.57 22.67 27.36 31.94 24.46 25.84 29.88 29.88 22.12 21.39 31.95 27.37 26.94 22.84 33.5 24.51 23.08 19.63 34.45 21.4 28.08 19.12 34.78 18.15 23.29 17.63 34.47 14.92 27.71 15.25 33.52 11.8 22.71 15.7 32.01 8.93 25.88 11.81 29.94 6.41 21.43 14.14 27.42 4.33 22.87 9.33 24.55 2.78 19.65 13.2 21.42 1.84 19.15 8.2 18.18 1.51 17.65 12.99 14.93 1.82 15.26 8.56 11.8 2.76 15.72 13.57"/></g><path class="cls-4" d="M46.95,31.45c.61-.31,.91-.47,.82-1.69l.05-22.93s.25-1.81-.99-1.81v-.06l11.85,.02c6.43,.01,11.31,3.15,11.3,8.23-.01,6.41-7.78,8.83-14.2,7.75l-.02,8.8c-.04,1.11,.4,1.52,.9,1.69v.03l-9.71-.02v-.03ZM55.73,5.58v14c0,.77,1.18,.73,2.02,.48,2.1-.63,4.42-3.13,4.43-6.75,.01-5.71-4.74-7.98-6.45-7.73"/><path class="cls-4" d="M91.75,12.48V5.05l-8.71-.02c-8.99-.02-11.42,3.77-11.43,7.83,0,4.52,3.12,6.37,4.74,7.18,1.73,.87,6.5,2.37,7.95,2.92,1.46,.54,3.35,1.33,3.34,4.04,0,2.8-2.91,4.49-5.56,4.48-4.91,0-9.53-3.73-10.26-8.28h-.07l-.02,8.96s7.22-.03,10.66,.02c5.54,.08,11.49-2.39,11.73-8.36,.08-1.95-.6-6.6-6.73-8.73-2.91-1.01-4.42-1.02-6.24-1.84-1.82-.82-3.86-3.22-1.75-5.73,1.76-2.1,8.86-4.36,12.31,4.93h.03Z"/><path class="cls-4" d="M144.51,31.67s-7.06-.02-12.33-.03c-8.23-.02-13.66-5.81-13.83-13.39-.16-7.56,5.84-13.14,13.39-13.13l10.48,.02v7.47c-1.09-2.11-3.62-6.85-7.64-6.87-4.34-.01-8.45,5.39-8.47,13.3-.01,6.04,4.65,11.97,7.57,11.97,2.04,0,2.67-1.64,2.67-2.52l.02-8.99c0-.79-1.17-1.18-1.71-1.18v-.11l9.88,.02v.08c-.56,0-.74,.69-.74,1.12l-.02,10.96c0,.42,.35,1.22,.73,1.22v.05Z"/><path class="cls-4" d="M117.79,22.89c-.39,3.01-6.11,7.89-8.83,8.03-2,.09-2.59,0-3.59,0-1,0-1.49-.19-1.49-1.22l.02-11.43c1.58,.46,2.47,.89,3.15,1.32,3.02,1.89,3.68,3.3,3.68,3.3l.12,.02,.02-11.06-.12-.02s-.62,1.87-3.64,3.86c-1.49,.98-2.84,1.44-3.21,1.55l.02-11.49h4.84c4.19,.28,7.07,5.22,7.94,6.67h.05V5.09l-22.05-.04v.06c.75,0,1.01,1,1,1.66l-.05,23.32c0,.88-.56,1.4-1.02,1.4v.07l23.16,.04,.02-8.73h-.03Z"/><g><g><path class="cls-4" d="M48.02,43.24h-.96v-2.77h7.33v2.77h-1.86l.98,4.78c.34,1.64,.56,2.74,.61,3.16,.05,.25,.12,1,.2,1.84h.15c.22-2.16,.32-2.72,.96-5.64l1.54-6.91h5.03l1.3,6.13c.83,3.97,.86,4.19,1.05,6.42h.17c.07-.83,.17-1.62,.22-1.86,.07-.49,.29-1.67,.66-3.43l.93-4.49h-1.81v-2.77h6.57v2.77h-.96l-3.38,13.58h-5.42l-.98-4.54c-.66-3.26-.88-4.78-1.15-8.31h-.27c-.29,3.85-.56,5.76-1.35,9.32l-.81,3.53h-5.42l-3.33-13.58Z"/><path class="cls-4" d="M82.7,46.08c1.4,1.05,2.13,2.72,2.13,4.83,0,1.94-.59,3.41-1.81,4.51-1.25,1.15-3.02,1.77-5.05,1.77-4.29,0-6.96-2.45-6.96-6.37,0-3.7,2.77-6.2,6.89-6.2,1.86,0,3.53,.51,4.8,1.47Zm-6.91,4.81c0,2.21,.74,3.38,2.13,3.38s2.13-1.15,2.13-3.56c0-2.11-.71-3.19-2.13-3.19s-2.13,1.13-2.13,3.36Z"/><path class="cls-4" d="M91.72,47.7c.32-.96,.39-1.1,.76-1.57,.78-1,1.69-1.52,2.72-1.52,.54,0,.81,.07,1.2,.37v4.07c-.66-.2-.86-.22-1.27-.22-.76,0-1.45,.22-2.01,.64-.78,.61-1.08,1.27-1.08,2.55v2.08h1.74v2.72h-7.75v-2.72h1.35v-6.4h-1.35v-2.72h5.69v2.72Z"/><path class="cls-4" d="M103.24,47.7c.32-.96,.39-1.1,.76-1.57,.78-1,1.69-1.52,2.72-1.52,.54,0,.81,.07,1.2,.37v4.07c-.66-.2-.86-.22-1.27-.22-.76,0-1.45,.22-2.01,.64-.78,.61-1.08,1.27-1.08,2.55v2.08h1.74v2.72h-7.75v-2.72h1.35v-6.4h-1.35v-2.72h5.69v2.72Z"/><path class="cls-4" d="M109.71,47.7h-.88v-2.72h6.96v2.72h-1.25l.86,2.13c.71,1.79,.81,2.13,1.15,3.5,.32-1.5,.47-2.01,1.23-4.09l.59-1.54h-1.23v-2.72h6.23v2.72h-.86l-4.78,10.64c-1.15,2.6-2.08,3.24-4.76,3.24-.81,0-1.35-.05-1.99-.17v-3.06c.76,.1,1.2,.15,1.59,.15,.71,0,1.05-.22,1.37-.93l.22-.42-4.46-9.44Z"/><path class="cls-4" d="M132.04,47.55v-1.67h2.87v6.1h-2.87v-1.74h-1.54v3.8h2.21v2.77h-8.31v-2.77h1.62v-10.81h-1.62v-2.77h15v5.42h-3.55v-2.65h-5.34v4.31h1.54Z"/><path class="cls-4" d="M146.37,47.7c.32-.96,.39-1.1,.76-1.57,.78-1,1.69-1.52,2.72-1.52,.54,0,.81,.07,1.2,.37v4.07c-.66-.2-.86-.22-1.27-.22-.76,0-1.45,.22-2.01,.64-.78,.61-1.08,1.27-1.08,2.55v2.08h1.74v2.72h-7.75v-2.72h1.35v-6.4h-1.35v-2.72h5.69v2.72Z"/><path class="cls-4" d="M164.54,53.36c-.74,2.57-2.7,3.82-6.01,3.82-4.04,0-6.42-2.38-6.42-6.37s2.35-6.2,6.2-6.2c2.72,0,4.66,1,5.54,2.84,.44,.88,.71,2.43,.71,3.87,0,.2,0,.34-.02,.66h-7.97c.1,1.03,.15,1.25,.29,1.62,.34,.74,.88,1.13,1.57,1.13,.88,0,1.45-.44,1.69-1.37h4.41Zm-4.34-3.73c-.1-1.84-.59-2.57-1.74-2.57s-1.72,.81-1.84,2.57h3.58Z"/><path class="cls-4" d="M178.09,53.36c-.74,2.57-2.7,3.82-6.01,3.82-4.04,0-6.42-2.38-6.42-6.37s2.35-6.2,6.2-6.2c2.72,0,4.66,1,5.54,2.84,.44,.88,.71,2.43,.71,3.87,0,.2,0,.34-.02,.66h-7.97c.1,1.03,.15,1.25,.29,1.62,.34,.74,.88,1.13,1.57,1.13,.88,0,1.45-.44,1.69-1.37h4.41Zm-4.34-3.73c-.1-1.84-.59-2.57-1.74-2.57s-1.72,.81-1.84,2.57h3.58Z"/></g><path class="cls-4" d="M184.09,43.5c0,1.63-1.31,2.92-2.97,2.92s-2.9-1.32-2.9-2.92,1.32-2.91,2.94-2.91,2.93,1.31,2.93,2.91Zm-5.23,0c0,1.26,1.03,2.31,2.26,2.31s2.32-1.02,2.32-2.31-1.03-2.31-2.29-2.31-2.29,1.03-2.29,2.31Zm1.99,.92h.31v.53h-1.42v-.53h.28v-1.83h-.28v-.53h1.69c.65,0,.98,.27,.98,.8,0,.26-.11,.47-.31,.59-.08,.05-.14,.07-.3,.1,.26,.04,.35,.13,.44,.41l.15,.47h.26v.53h-.99l-.3-.89c-.06-.19-.14-.25-.32-.25h-.19v.61Zm.23-1.15c.28,0,.45-.13,.45-.37,0-.21-.14-.32-.4-.32h-.28v.68h.23Z"/></g></g><g><g><path class="cls-5" d="M230.64,38.72c-1.55,1.94-4.05,3.1-6.68,3.1-2.64,0-5.14-1.17-6.69-3.12-.12-.15-.17-.34-.15-.53,.02-.19,.12-.36,.27-.48,.13-.1,.28-.16,.45-.16,.22,0,.43,.1,.56,.27,1.28,1.61,3.36,2.57,5.57,2.57,2.2,0,4.28-.96,5.56-2.56,.14-.17,.34-.27,.56-.27,.16,0,.32,.05,.45,.16,.15,.12,.24,.29,.27,.48,.02,.19-.03,.38-.15,.53m4.25-4.82c0-.36-.15-.68-.4-.91l-9.7-9.45c-.22-.22-.53-.36-.86-.36s-.64,.14-.86,.36l-3.65,3.57v-.6c0-.68-.55-1.22-1.22-1.22h-1.38c-.67,0-1.22,.55-1.22,1.22v4.34l-2.22,2.17c-.22,.22-.36,.53-.36,.87,0,.68,.54,1.22,1.22,1.22h1.29v8.22c0,.68,.55,1.22,1.22,1.22h14.35c.67,0,1.22-.55,1.22-1.22v-8.22h1.35c.67,0,1.22-.55,1.22-1.22m16.14,9.78v-13.24c0-.57-.29-.89-.86-.89h-.95c-.59,0-.88,.32-.88,.89v5.33c-1.04,.57-2.16,.87-3.3,.87-1.23,0-2.43-.36-3.54-1.02v-5.19c0-.57-.29-.89-.86-.89h-.97c-.57,0-.86,.32-.86,.89v13.24c0,.59,.29,.89,.86,.89h.97c.57,0,.86-.3,.86-.89v-5.46c1.13,.55,2.32,.86,3.54,.86,1.13,0,2.24-.26,3.3-.74v5.35c0,.59,.29,.89,.88,.89h.95c.57,0,.86-.3,.86-.89m9.89-4.51c0,2.01-1.45,3.36-3.2,3.36s-3.18-1.35-3.18-3.36,1.43-3.36,3.18-3.36,3.2,1.37,3.2,3.36m2.71,0c0-3.3-2.65-5.65-5.91-5.65s-5.89,2.35-5.89,5.65,2.63,5.65,5.89,5.65,5.91-2.33,5.91-5.65m17.18,4.51v-6.05c0-2.83-1.28-4.1-3.51-4.1-1.68,0-3.09,1.1-3.66,2.22h-.04c-.44-1.46-1.51-2.22-3.13-2.22s-2.99,1.23-3.51,2.28h-.04s.04-.25,.04-.49v-.66c0-.57-.29-.89-.86-.89h-.82c-.57,0-.86,.32-.86,.89v9.01c0,.59,.29,.89,.86,.89h.93c.57,0,.86-.3,.86-.89v-3.96c0-1.8,.88-3.74,2.78-3.74,1.26,0,1.43,.99,1.43,2.16v5.54c0,.59,.32,.89,.88,.89h.93c.57,0,.86-.3,.86-.89v-3.96c0-1.88,.93-3.74,2.73-3.74,1.24,0,1.47,.93,1.47,2.16v5.54c0,.59,.29,.89,.88,.89h.9c.57,0,.88-.3,.88-.89m3.16-5.1c-.12-1.45,.56-2.62,1.88-2.98,1.18-.32,2.28,.31,2.71,1.74-.65-.09-1.43-.03-2.32,.21-.9,.24-1.67,.6-2.27,1.02m7.87,3.88c.38-.39,.35-.82-.02-1.22l-.35-.34c-.39-.4-.61-.44-1.06-.06-.41,.44-1.15,1.17-2.11,1.42-1.83,.47-3.33-.3-3.97-2.08h0c.91,.14,2.15,.03,3.56-.35,1.53-.41,2.59-.98,3.14-1.58h0c.25-.23,.36-.58,.27-.9-.76-2.86-2.97-4.52-5.91-3.73-3.11,.84-4.66,3.67-3.81,6.87,.79,2.96,3.59,4.88,7.02,3.96,1.63-.44,2.68-1.38,3.24-1.99m3.51-8.96c0-1.02,.88-1.69,2.27-1.69,1.16,0,1.98,.47,2.59,.82,.44,.23,.88,.32,1.2-.3l.38-.7c.25-.47,.19-.87-.27-1.21-.63-.47-2.08-1.14-3.85-1.14-2.84,0-5.03,1.71-5.03,4.36,0,4.67,6.96,4.08,6.96,6.94,0,1.01-.84,1.71-2.23,1.71-1.47,0-2.54-.76-3.03-1.1-.53-.3-.88-.28-1.22,.19l-.46,.68c-.42,.57-.21,.93,.13,1.23,.74,.57,2.46,1.52,4.58,1.52,3.13,0,4.94-2.01,4.94-4.44,0-4.78-6.96-4.06-6.96-6.87m14.99,4.33c-.62-.23-1.39-.34-2.31-.3-.93,.04-1.76,.22-2.44,.51,.19-1.45,1.12-2.44,2.48-2.5,1.22-.05,2.16,.79,2.27,2.29m2.68,.61c-.13-2.96-1.93-5.06-4.97-4.93-3.21,.14-5.34,2.56-5.2,5.88,.13,3.06,2.45,5.54,6,5.39,1.68-.07,2.91-.76,3.59-1.24,.45-.29,.52-.72,.24-1.2l-.27-.41c-.29-.47-.5-.57-1.02-.29-.49,.34-1.38,.89-2.37,.92-1.89,.06-3.19-1.02-3.43-2.9h0c.86,.33,2.09,.5,3.55,.44,1.58-.07,2.74-.39,3.41-.86h0c.29-.17,.47-.49,.46-.82m7.26-3.03v-.82c0-.59-.21-.89-.8-.89-1.51,0-2.69,1.44-3.11,2.73h-.04s.06-.34,.06-.74v-1.01c0-.57-.32-.89-.88-.89h-.82c-.57,0-.86,.32-.86,.89v9.01c0,.59,.29,.89,.86,.89h.93c.57,0,.86-.3,.86-.89v-3.47c0-1.97,.95-3.91,2.9-3.91,.57,0,.9-.32,.9-.89m10.69-.61c.21-.61-.06-1.02-.72-1.02h-.99c-.5,0-.84,.23-.99,.74l-2,5.94c-.21,.63-.38,1.63-.38,1.63h-.04s-.19-.99-.4-1.63l-2-5.94c-.15-.51-.48-.74-.99-.74h-.99c-.65,0-.9,.4-.69,1.02l3.28,9.05c.15,.51,.48,.72,.99,.72h1.68c.51,0,.82-.21,.99-.72l3.24-9.05Zm7.02,3.04c-.62-.23-1.39-.34-2.31-.3-.93,.04-1.76,.22-2.44,.51,.19-1.45,1.12-2.44,2.48-2.5,1.22-.05,2.16,.79,2.27,2.29m2.68,.61c-.13-2.96-1.93-5.06-4.97-4.93-3.21,.14-5.34,2.56-5.2,5.88,.13,3.06,2.45,5.54,6,5.39,1.68-.07,2.91-.76,3.59-1.24,.45-.29,.52-.72,.24-1.2l-.27-.41c-.29-.47-.5-.57-1.02-.29-.49,.34-1.38,.89-2.37,.92-1.89,.06-3.19-1.02-3.43-2.9h0c.86,.33,2.09,.5,3.55,.44,1.58-.07,2.74-.39,3.41-.86h0c.29-.17,.47-.49,.46-.82"/><path class="cls-5" d="M341.93,32.17c.71,0,1.27,.58,1.27,1.3s-.56,1.3-1.27,1.3-1.26-.58-1.26-1.3,.56-1.3,1.26-1.3Zm0,2.35c.57,0,1.01-.46,1.01-1.05s-.44-1.05-1.01-1.05-1,.46-1,1.05,.44,1.05,1,1.05Zm-.43-1.73h.51c.25,0,.42,.16,.42,.41,0,.21-.14,.33-.25,.36h0s.01,.02,.05,.08l.26,.49h-.28l-.25-.52h-.22v.52h-.25v-1.34Zm.47,.64c.13,0,.22-.09,.22-.23s-.09-.22-.22-.22h-.21v.44h.21Z"/></g><g><path class="cls-4" d="M241.48,20.44c1.61,0,2.83,1.23,2.83,2.79s-1.22,2.87-2.83,2.87-2.83-1.26-2.83-2.87,1.22-2.79,2.83-2.79Zm0,4.75c1,0,1.8-.83,1.8-1.96s-.8-1.88-1.8-1.88-1.8,.8-1.8,1.88,.8,1.96,1.8,1.96Z"/><path class="cls-4" d="M245.32,20.53h2.11c1.02,0,1.74,.72,1.74,1.78s-.72,1.8-1.74,1.8h-1.12v1.89h-.99v-5.47Zm1.93,2.72c.58,0,.92-.37,.92-.94s-.34-.92-.9-.92h-.95v1.86h.93Z"/><path class="cls-4" d="M250.05,20.53h3.28v.86h-2.28v1.43h1.84v.86h-1.84v1.47h2.4v.86h-3.4v-5.47Z"/><path class="cls-4" d="M254.49,20.53h1.76c.59,0,.86,.05,1.1,.15,.55,.25,.89,.77,.89,1.5,0,.65-.35,1.26-.92,1.49v.02s.08,.08,.19,.27l1.12,2.04h-1.11l-1.09-2.04h-.96v2.04h-.99v-5.47Zm1.89,2.57c.53,0,.86-.32,.86-.86s-.22-.85-1-.85h-.76v1.71h.89Z"/><path class="cls-4" d="M262.28,24.6h-1.92l-.46,1.4h-1.03l1.93-5.47h1.04l1.93,5.47h-1.03l-.46-1.4Zm-.96-3.12s-.12,.54-.23,.85l-.49,1.46h1.43l-.49-1.46c-.1-.31-.22-.85-.22-.85h-.02Z"/><path class="cls-4" d="M265.29,21.39h-1.8v-.86h4.58v.86h-1.79v4.62h-.99v-4.62Z"/><path class="cls-4" d="M268.81,20.53h3.28v.86h-2.28v1.43h1.84v.86h-1.84v1.47h2.4v.86h-3.4v-5.47Z"/><path class="cls-4" d="M273.24,20.53h1.87c1.69,0,2.79,1,2.79,2.73s-1.1,2.74-2.79,2.74h-1.87v-5.47Zm1.81,4.62c1.11,0,1.82-.65,1.82-1.89s-.72-1.87-1.82-1.87h-.82v3.76h.82Z"/><path class="cls-4" d="M281.62,20.53h1.96c.99,0,1.69,.51,1.69,1.41,0,.51-.25,.95-.66,1.17v.02c.6,.18,.89,.73,.89,1.29,0,1.09-.88,1.59-1.89,1.59h-1.98v-5.47Zm1.96,2.23c.43,0,.68-.31,.68-.7s-.23-.68-.69-.68h-.95v1.38h.96Zm.1,2.38c.51,0,.79-.33,.79-.79s-.29-.79-.79-.79h-1.06v1.58h1.06Z"/><path class="cls-4" d="M287.64,23.71l-1.82-3.18h1.12l.86,1.61c.18,.34,.32,.74,.33,.73h.02s.15-.39,.33-.73l.85-1.61h1.12l-1.82,3.18v2.29h-.99v-2.29Z"/></g></g><rect class="cls-3" x="199.03" y="4.96" width=".5" height="56.62"/></svg>