<svg width="189" height="52" viewBox="0 0 189 52" fill="none" xmlns="http://www.w3.org/2000/svg">
<g clip-path="url(#clip0_3884_3251)">
<path d="M46.8412 50.5552H4.67166C2.43897 50.5552 0.630494 47.337 0.630494 43.3685V7.8398C0.628922 3.87096 2.43897 0.653687 4.67166 0.653687H46.8412" fill="white"/>
<path d="M46.8412 50.5552H4.67166C2.43897 50.5552 0.630494 47.337 0.630494 43.3685V7.8398C0.628922 3.87096 2.43897 0.653687 4.67166 0.653687H46.8412" stroke="#E43D30" stroke-width="1.25785"/>
<path d="M46.0409 50.926H126.388C130.64 50.926 134.088 47.6619 134.088 43.633V7.57473C134.088 3.5474 130.64 0.282959 126.388 0.282959H46.0409" fill="#E43D30"/>
<path d="M46.0409 50.926H126.388C130.64 50.926 134.088 47.6619 134.088 43.633V7.57473C134.088 3.5474 130.64 0.282959 126.388 0.282959H46.0409" stroke="#E43D30" stroke-width="0.566034" stroke-miterlimit="10"/>
<path d="M31.7891 30.9802H15.3172L14.7207 32.9488H19.109L19.948 35.666H27.1637L27.9977 32.9488H32.3879L31.7891 30.9802Z" fill="#E43D30" stroke="#E43D30" stroke-width="0.00786158"/>
<path d="M18.0049 19.9202C17.7043 20.3339 17.4883 20.8027 17.3691 21.2999C17.2499 21.7971 17.2299 22.313 17.3103 22.8179C17.3907 23.3228 17.5699 23.807 17.8375 24.2426C18.1052 24.6782 18.4562 25.0568 18.8703 25.3567L22.8127 28.2205C23.0216 28.3728 23.1617 28.6017 23.2023 28.8571C23.2429 29.1124 23.1807 29.3734 23.0294 29.5831L23.6237 30.0129L25.7051 27.1384C26.1882 26.4773 26.4486 25.6798 26.4489 24.8611C26.4485 24.6532 26.4316 24.4458 26.3982 24.2406C26.3194 23.7352 26.141 23.2506 25.8731 22.8148C25.6053 22.379 25.2535 22.0008 24.8382 21.7023L20.8979 18.8366C20.7941 18.7619 20.7061 18.6674 20.6389 18.5585C20.5717 18.4497 20.5267 18.3286 20.5064 18.2023C20.4999 18.1502 20.4963 18.0977 20.4957 18.0451C20.4949 17.8408 20.5598 17.6417 20.681 17.4772V17.4775L20.0888 17.0476L18.0055 19.9215" fill="#E43D30"/>
<path d="M18.0049 19.9202C17.7043 20.3339 17.4883 20.8027 17.3691 21.2999C17.2499 21.7971 17.2299 22.313 17.3103 22.8179C17.3907 23.3228 17.5699 23.807 17.8375 24.2426C18.1052 24.6782 18.4562 25.0568 18.8703 25.3567L22.8127 28.2205C23.0216 28.3728 23.1617 28.6017 23.2023 28.8571C23.2429 29.1124 23.1807 29.3734 23.0294 29.5831L23.6237 30.0129L25.7051 27.1384C26.1882 26.4773 26.4486 25.6798 26.4489 24.8611C26.4485 24.6532 26.4316 24.4458 26.3982 24.2406C26.3194 23.7352 26.141 23.2506 25.8731 22.8148C25.6053 22.379 25.2535 22.0008 24.8382 21.7023L20.8979 18.8366C20.7941 18.7619 20.7061 18.6674 20.6389 18.5585C20.5717 18.4497 20.5267 18.3286 20.5064 18.2023C20.4999 18.1502 20.4963 18.0977 20.4957 18.0451C20.4949 17.8408 20.5598 17.6417 20.681 17.4772V17.4775L20.0888 17.0476L18.0055 19.9215" stroke="#E43D30" stroke-width="0.00786158"/>
<path d="M20.3813 8.40591C19.6811 9.36538 19.3038 10.5225 19.304 11.7103C19.3045 12.0115 19.3287 12.3122 19.3763 12.6097C19.4913 13.3428 19.7506 14.0459 20.1393 14.6782C20.5279 15.3104 21.0382 15.8593 21.6404 16.293L26.5945 19.881C26.9172 20.1135 27.1906 20.4077 27.3989 20.7467C27.6071 21.0856 27.7459 21.4625 27.8074 21.8555C27.8326 22.0145 27.8452 22.1753 27.8451 22.3363C27.8454 22.9727 27.6434 23.5927 27.2684 24.1068L27.7401 24.4527L31.6451 19.0565C32.0806 18.4561 32.3935 17.7759 32.566 17.0546C32.7385 16.3332 32.7671 15.585 32.6503 14.8526C32.5335 14.1202 32.2735 13.418 31.8852 12.7861C31.4969 12.1543 30.9879 11.6051 30.3872 11.17L24.4042 6.82353C24.0307 6.55174 23.7802 6.1429 23.7077 5.68668C23.6352 5.23046 23.7466 4.76411 24.0174 4.3899L23.5426 4.04651L20.3813 8.40591Z" fill="#E43D30" stroke="#E43D30" stroke-width="0.00786158" stroke-miterlimit="10"/>
<path d="M10.2594 37.3104H14.7723C15.8829 37.3104 16.7587 37.6155 17.3147 38.1692C17.7594 38.6158 17.9807 39.1563 17.9807 39.8227V39.8513C17.9807 40.9488 17.3961 41.5591 16.7034 41.9478C17.8285 42.3783 18.5216 43.0318 18.5216 44.3377V44.3657C18.5216 46.1431 17.077 47.0317 14.8839 47.0317H10.2594V37.3104ZM14.316 41.2396C15.2594 41.2396 15.8568 40.9337 15.8568 40.2117V40.1843C15.8568 39.5447 15.3572 39.1849 14.4534 39.1849H12.3446V41.2396H14.316ZM14.8848 45.155C15.8282 45.155 16.398 44.8226 16.398 44.1013V44.0726C16.398 43.4192 15.9125 43.0182 14.8157 43.0182H12.3446V45.1566L14.8848 45.155Z" fill="#E43D30" stroke="#E43D30" stroke-width="0.00786158"/>
<path d="M19.4514 37.3104H23.964C25.0765 37.3104 25.952 37.6155 26.5064 38.1692C26.9498 38.6158 27.1727 39.1563 27.1727 39.8227V39.8513C27.1727 40.9488 26.5897 41.5591 25.8954 41.9478C27.0187 42.3783 27.7133 43.0318 27.7133 44.3377V44.3657C27.7133 46.1431 26.2709 47.0317 24.0756 47.0317H19.4514V37.3104ZM23.508 41.2396C24.4514 41.2396 25.0489 40.9337 25.0489 40.2117V40.1843C25.0489 39.5447 24.5495 39.1849 23.646 39.1849H21.5354V41.2396H23.508ZM24.0769 45.155C25.0202 45.155 25.5916 44.8226 25.5916 44.1013V44.0726C25.5916 43.4192 25.1045 43.0182 24.0077 43.0182H21.536V45.1566L24.0769 45.155Z" fill="#E43D30" stroke="#E43D30" stroke-width="0.00786158"/>
<path d="M28.645 37.3104H33.1579C34.2689 37.3104 35.1425 37.6155 35.7 38.1692C36.1431 38.6158 36.3648 39.1563 36.3648 39.8227V39.8513C36.3648 40.9488 35.7818 41.5591 35.0871 41.9478C36.2126 42.3783 36.9066 43.0318 36.9066 44.3377V44.3657C36.9066 46.1431 35.4629 47.0317 33.2698 47.0317H28.645V37.3104ZM32.6988 41.2396C33.6422 41.2396 34.2396 40.9337 34.2396 40.2117V40.1843C34.2396 39.5447 33.7403 39.1849 32.8368 39.1849H30.7265V41.2396H32.6988ZM33.2698 45.155C34.2132 45.155 34.7824 44.8226 34.7824 44.1013V44.0726C34.7824 43.4192 34.2953 43.0182 33.1984 43.0182H30.7268V45.1566L33.2698 45.155Z" fill="#E43D30" stroke="#E43D30" stroke-width="0.00786158"/>
<path d="M36.8231 45.1723V45.1685C36.8209 45.0788 36.8367 44.9896 36.8694 44.9061C36.9022 44.8226 36.9513 44.7464 37.0139 44.6821C37.0764 44.6178 37.1512 44.5667 37.2338 44.5317C37.3164 44.4967 37.4052 44.4785 37.4949 44.4783C37.5846 44.478 37.6735 44.4957 37.7563 44.5302C37.839 44.5648 37.9141 44.6155 37.977 44.6794C38.04 44.7434 38.0895 44.8192 38.1227 44.9026C38.156 44.9859 38.1722 45.075 38.1706 45.1647V45.1685C38.1727 45.2582 38.157 45.3474 38.1242 45.4309C38.0914 45.5144 38.0423 45.5906 37.9798 45.6548C37.9172 45.7191 37.8424 45.7703 37.7598 45.8053C37.6772 45.8403 37.5885 45.8584 37.4987 45.8587C37.409 45.8589 37.3202 45.8413 37.2374 45.8067C37.1546 45.7722 37.0795 45.7215 37.0166 45.6575C36.9536 45.5936 36.9041 45.5177 36.8709 45.4344C36.8377 45.3511 36.8214 45.262 36.8231 45.1723ZM38.0926 45.1685V45.1647C38.0941 45.0853 38.0798 45.0064 38.0504 44.9327C38.0211 44.8589 37.9773 44.7917 37.9216 44.7351C37.8659 44.6785 37.7995 44.6336 37.7262 44.6031C37.6529 44.5725 37.5743 44.5569 37.4949 44.5571C37.4155 44.5574 37.3369 44.5735 37.2639 44.6045C37.1908 44.6356 37.1246 44.6809 37.0693 44.7378C37.014 44.7948 36.9706 44.8622 36.9417 44.9362C36.9128 45.0101 36.899 45.0891 36.9011 45.1685V45.1723C36.8995 45.2516 36.9138 45.3305 36.9432 45.4043C36.9726 45.4781 37.0164 45.5452 37.072 45.6018C37.1277 45.6584 37.1941 45.7033 37.2674 45.7339C37.3407 45.7645 37.4194 45.7801 37.4987 45.7798C37.5781 45.7796 37.6567 45.7635 37.7298 45.7324C37.8028 45.7014 37.869 45.6561 37.9243 45.5991C37.9796 45.5422 38.023 45.4747 38.0519 45.4008C38.0808 45.3268 38.0946 45.2479 38.0926 45.1685ZM37.202 44.8006H37.5435C37.7174 44.8006 37.841 44.8748 37.841 45.0408C37.8436 45.089 37.8307 45.1368 37.8042 45.1771C37.7778 45.2174 37.7391 45.2482 37.6938 45.265L37.8646 45.5128H37.6319L37.4891 45.2999H37.4039V45.5128H37.202V44.8006ZM37.5312 45.1411C37.6011 45.1411 37.64 45.1065 37.64 45.0565C37.64 45.0065 37.6011 44.9713 37.5312 44.9713H37.4039V45.1411H37.5312Z" fill="#E43D30" stroke="#E43D30" stroke-width="0.00786158"/>
<path d="M57.2207 15.6958H58.9339L62.554 24.202H60.6109L59.8389 22.3074H56.2676L55.4952 24.202H53.6022L57.2207 15.6958ZM59.1757 20.6665L58.0531 17.9279L56.9311 20.6665H59.1757Z" fill="white"/>
<path d="M62.2531 20.003V19.9791C62.2531 17.5779 64.0631 15.6112 66.6574 15.6112C68.2495 15.6112 69.2046 16.1423 69.987 16.9143L68.8049 18.2779C68.153 17.6867 67.4898 17.3247 66.6452 17.3247C65.2216 17.3247 64.1955 18.5071 64.1955 19.9549V19.9791C64.1955 21.4256 65.1971 22.6335 66.6452 22.6335C67.6102 22.6335 68.2018 22.2473 68.865 21.6439L70.0476 22.8388C69.1791 23.7678 68.2137 24.3483 66.5848 24.3483C64.0993 24.3467 62.2531 22.4285 62.2531 20.003Z" fill="white"/>
<path d="M70.23 20.003V19.9791C70.23 17.5779 72.04 15.6112 74.634 15.6112C76.2265 15.6112 77.1796 16.1423 77.9639 16.9143L76.7815 18.2779C76.1299 17.6867 75.4664 17.3247 74.6218 17.3247C73.1982 17.3247 72.1724 18.5071 72.1724 19.9549V19.9791C72.1724 21.4256 73.174 22.6335 74.6218 22.6335C75.5869 22.6335 76.1784 22.2473 76.8419 21.6439L78.0243 22.8388C77.1557 23.7678 76.1903 24.3483 74.5614 24.3483C72.0759 24.3467 70.23 22.4285 70.23 20.003Z" fill="white"/>
<path d="M78.8221 15.7561H82.6831C83.7567 15.7561 84.5897 16.0577 85.1444 16.6127C85.6161 17.0844 85.8677 17.747 85.8677 18.5432V18.5674C85.8677 19.9306 85.1318 20.7875 84.0576 21.1853L86.1208 24.202H83.9492L82.1397 21.4991H80.6794V24.202H78.8221V15.7561ZM82.5643 19.8583C83.4687 19.8583 83.9878 19.3756 83.9878 18.6633V18.641C83.9878 17.8451 83.4328 17.4347 82.5278 17.4347H80.6816V19.8598L82.5643 19.8583Z" fill="white"/>
<path d="M86.8589 15.7561H93.2293V17.4092H88.7048V19.1221H92.6865V20.7753H88.7048V22.5488H93.2897V24.202H86.8589V15.7561Z" fill="white"/>
<path d="M94.256 15.7561H97.55C100.204 15.7561 102.038 17.5778 102.038 19.9548V19.979C102.038 22.3557 100.204 24.202 97.55 24.202H94.256V15.7561ZM96.1145 17.4331V22.5249H97.55C99.0704 22.5249 100.097 21.4991 100.097 20.0029V19.979C100.097 18.4828 99.0717 17.4319 97.55 17.4319L96.1145 17.4331Z" fill="white"/>
<path d="M103.09 15.7561H104.947V24.202H103.09V15.7561Z" fill="white"/>
<path d="M108.339 17.4693H105.768V15.7561H112.766V17.4693H110.196V24.202H108.339V17.4693Z" fill="white"/>
<path d="M113.503 15.7561H119.874V17.4092H115.349V19.1221H119.331V20.7753H115.349V22.5488H119.934V24.202H113.503V15.7561Z" fill="white"/>
<path d="M120.901 15.7561H124.195C126.849 15.7561 128.683 17.5778 128.683 19.9548V19.979C128.683 22.3557 126.849 24.202 124.195 24.202H120.901V15.7561ZM122.759 17.4331V22.5249H124.195C125.715 22.5249 126.742 21.4991 126.742 20.0029V19.979C126.742 18.4828 125.716 17.4319 124.195 17.4319L122.759 17.4331Z" fill="white"/>
<path d="M54.3254 29.4324H58.2465C59.2119 29.4324 59.9719 29.6978 60.4546 30.1805C60.8408 30.5666 61.0339 31.0371 61.0339 31.616V31.6405C61.0339 32.5937 60.5273 33.1245 59.9238 33.4622C60.9009 33.8361 61.5043 34.4034 61.5043 35.5377V35.5619C61.5043 37.1062 60.2496 37.8785 58.343 37.8785H54.3254V29.4324ZM59.188 31.9302C59.188 31.3748 58.7534 31.0613 57.9688 31.0613H56.1349V32.8471H57.8474C58.6679 32.8471 59.187 32.5814 59.187 31.9541L59.188 31.9302ZM58.283 34.3915H56.1349V36.2509H58.343C59.1635 36.2509 59.6584 35.9613 59.6584 35.3339V35.3075C59.6581 34.7415 59.2358 34.3915 58.2826 34.3915H58.283Z" fill="white"/>
<path d="M62.2185 34.2584V29.4324H64.0738V34.2103C64.0738 35.5858 64.7616 36.2974 65.8955 36.2974C67.0295 36.2974 67.7175 35.61 67.7175 34.2704V29.4324H69.5769V34.1984C69.5769 36.7562 68.1411 38.0109 65.8729 38.0109C63.6047 38.0109 62.2185 36.744 62.2185 34.2584Z" fill="white"/>
<path d="M70.2058 36.6475L71.3039 35.3324C72.064 35.9598 72.8602 36.3579 73.8256 36.3579C74.5857 36.3579 75.0441 36.0563 75.0441 35.5616V35.5374C75.0441 35.0657 74.7545 34.8258 73.3429 34.4635C71.642 34.0293 70.5442 33.5588 70.5442 31.8818V31.8576C70.5442 30.3252 71.7747 29.3104 73.5001 29.3104C74.7309 29.3104 75.7806 29.6966 76.6369 30.3843L75.6712 31.7856C74.9234 31.2667 74.1869 30.9529 73.4756 30.9529C72.7643 30.9529 72.3894 31.2786 72.3894 31.689V31.7129C72.3894 32.2683 72.7514 32.4491 74.2114 32.823C75.9243 33.2695 76.8897 33.8849 76.8897 35.3569V35.3808C76.8897 37.0582 75.6108 37.9994 73.7888 37.9994C72.5102 37.999 71.219 37.5525 70.2058 36.6475Z" fill="white"/>
<path d="M77.9048 29.4324H79.7626V37.8782H77.9048V29.4324Z" fill="white"/>
<path d="M81.1871 29.4324H82.9003L86.8579 34.6327V29.4324H88.6918V37.8782H87.1113L83.0208 32.5088V37.8779H81.1871V29.4324Z" fill="white"/>
<path d="M90.0325 29.4324H96.4032V31.0852H91.8784V32.7987H95.8604V34.4515H91.8784V36.2254H96.4636V37.8782H90.0328L90.0325 29.4324Z" fill="white"/>
<path d="M96.8506 36.6475L97.9487 35.3324C98.7087 35.9598 99.505 36.3579 100.47 36.3579C101.23 36.3579 101.689 36.0563 101.689 35.5616V35.5374C101.689 35.0657 101.399 34.8258 99.9877 34.4635C98.2864 34.0293 97.1889 33.5588 97.1889 31.8818V31.8576C97.1889 30.3252 98.4201 29.3104 100.145 29.3104C101.376 29.3104 102.425 29.6966 103.282 30.3843L102.316 31.7856C101.568 31.2667 100.832 30.9529 100.12 30.9529C99.4084 30.9529 99.0342 31.2786 99.0342 31.689V31.7129C99.0342 32.2683 99.3965 32.4491 100.856 32.823C102.57 33.2695 103.535 33.8849 103.535 35.3569V35.3808C103.535 37.0582 102.256 37.9994 100.434 37.9994C99.1553 37.999 97.8641 37.5525 96.8506 36.6475Z" fill="white"/>
<path d="M103.765 36.6475L104.863 35.3324C105.623 35.9598 106.42 36.3579 107.385 36.3579C108.145 36.3579 108.603 36.0563 108.603 35.5616V35.5374C108.603 35.0657 108.314 34.8258 106.902 34.4635C105.201 34.0293 104.104 33.5588 104.104 31.8818V31.8576C104.104 30.3252 105.334 29.3104 107.06 29.3104C108.291 29.3104 109.341 29.6966 110.197 30.3843L109.231 31.7856C108.483 31.2667 107.747 30.9529 107.035 30.9529C106.324 30.9529 105.949 31.2786 105.949 31.689V31.7129C105.949 32.2683 106.311 32.4491 107.771 32.823C109.484 33.2695 110.449 33.8849 110.449 35.3569V35.3808C110.449 37.0582 109.171 37.9994 107.349 37.9994C106.07 37.999 104.779 37.5525 103.765 36.6475Z" fill="white"/>
<path d="M188.42 47.4458C188.42 48.9663 187.269 50.1974 185.847 50.1974H140.452C139.03 50.1974 137.878 48.9663 137.878 47.4458V3.71435C137.878 2.1955 139.03 0.963745 140.452 0.963745H185.847C187.269 0.963745 188.42 2.1955 188.42 3.71435V47.4458Z" stroke="#E43D30" stroke-width="1.16006"/>
<path d="M151.262 13.0823H157.061L165.738 37.6082H160.18L158.561 32.5658H149.529L147.867 37.6082H142.507L151.262 13.0823ZM150.924 28.3407H157.205L154.107 18.6898L150.924 28.3407Z" fill="#E43D30"/>
<path d="M165.771 29.8315V25.4894H172.595V18.6655H176.971V25.4894H183.793V29.8315H176.971V36.6868H172.595V29.8315H165.771Z" fill="#E43D30"/>
</g>
<defs>
<clipPath id="clip0_3884_3251">
<rect width="189" height="51.2091" fill="white"/>
</clipPath>
</defs>
</svg>
