<svg width="84" height="86" viewBox="0 0 84 86" fill="none" xmlns="http://www.w3.org/2000/svg">
<ellipse cx="41.7267" cy="43.1594" rx="40" ry="41.1594" stroke="#FF4500" stroke-width="3"/>
<ellipse cx="42.2267" cy="43" rx="34.0274" ry="36" stroke="#FF4500" stroke-width="3"/>
<path d="M28.336 30.0945H55.356C55.986 30.0945 56.476 29.5903 56.476 28.942C56.476 28.2938 55.986 27.7895 55.356 27.7895H54.516C54.166 22.3153 51.016 17.4894 46.536 15.4726V15.5446C46.676 16.1929 46.676 16.8411 46.606 17.4894C46.536 18.7859 46.256 19.9384 45.906 21.1629C45.556 22.3153 45.136 23.4678 44.506 24.5482C44.786 23.3958 44.996 22.1713 45.206 21.0188C45.416 19.8664 45.486 18.6419 45.416 17.4894C45.346 16.409 45.206 15.1845 44.576 14.6082C44.296 14.3201 43.946 14.104 43.456 14.032C43.246 13.96 42.966 14.032 42.686 14.032H40.866C40.586 14.032 40.306 14.032 40.096 14.032C39.606 14.104 39.256 14.2481 38.976 14.6082C38.346 15.2565 38.206 16.409 38.136 17.4894C38.066 18.6419 38.206 19.7943 38.346 21.0188C38.486 22.1713 38.696 23.3958 39.046 24.5482C38.416 23.4678 38.066 22.3153 37.646 21.1629C37.296 20.0104 37.016 18.7859 36.946 17.4894C36.946 17.4174 36.946 17.2733 36.946 17.2013C36.946 16.6971 36.946 16.1209 37.016 15.5446V15.4726C32.536 17.4894 29.386 22.3153 29.036 27.7895H28.126C27.496 27.7895 27.006 28.2938 27.006 28.942C27.216 29.5903 27.706 30.0945 28.336 30.0945Z" fill="#FF4500"/>
<path d="M53.3771 64.125C53.3072 63.875 53.2373 63.75 53.0975 63.5C53.0276 63.375 53.0276 63.375 52.9577 63.25C52.6781 62.75 52.2586 62.375 51.8391 62.125C51.6294 62 51.4197 62 51.21 62H33.3133C33.1036 62 32.8939 62 32.6841 62.125C32.2647 62.375 31.8452 62.75 31.5656 63.25C31.4957 63.375 31.4957 63.375 31.4258 63.5C31.3559 63.625 31.3559 63.75 31.286 63.875C31.1461 64.25 31.0063 64.625 30.9364 65C30.7966 65.5 30.7267 66.125 30.7267 66.75L31.286 77.5H52.9577L53.7267 66.625C53.7267 66 53.6568 65.375 53.517 64.75C53.517 64.625 53.447 64.375 53.3771 64.125Z" fill="#FF4500"/>
<path d="M30.7267 61.5551L29.2553 53.8603C29.1853 53.9449 29.1152 53.9449 29.0452 53.9449C29.1152 53.8603 29.1853 53.8603 29.2553 53.7757L28.905 52C28.5547 52.1691 28.2044 52.3382 27.9241 52.5919C27.784 52.6765 27.6439 52.761 27.5038 52.8456C26.8031 53.3529 26.1725 53.8603 25.542 54.4522C25.4719 54.5368 25.3318 54.6213 25.2617 54.7904C24.9815 55.0441 24.7012 55.3824 24.421 55.7206C24.2808 55.8051 24.2108 55.9743 24.0706 56.1434C24.0006 56.2279 24.0006 56.2279 23.9305 56.3125C23.8604 56.3971 23.7203 56.5662 23.6503 56.7353C23.5101 56.9044 23.4401 57.0735 23.2999 57.2426C23.2299 57.3272 23.1598 57.4118 23.0897 57.4963C23.0197 57.6654 22.8796 57.75 22.8095 57.9191C22.7394 58.0882 22.5993 58.1728 22.5292 58.3419C22.4592 58.511 22.319 58.6801 22.249 58.7647C21.9687 59.2721 21.6885 59.7794 21.4783 60.2868C21.4082 60.5404 21.2681 60.7096 21.198 60.9632C20.9878 61.4706 20.7776 62.0625 20.6375 62.6544C20.6375 62.6544 20.6375 62.6544 20.6375 62.739C20.5674 62.9926 20.4974 63.3309 20.4273 63.5846C20.3573 63.8382 20.2872 64.0919 20.2171 64.3456C20.1471 64.5147 20.1471 64.7684 20.077 64.9375C20.0069 65.1066 20.0069 65.3603 19.9369 65.5294C19.9369 65.614 19.9369 65.614 19.9369 65.6985C19.8668 65.8676 19.8668 66.0368 19.8668 66.2904C19.8668 66.375 19.8668 66.4596 19.8668 66.5441C19.8668 66.7978 19.7967 66.9669 19.7967 67.2206C19.7967 67.4743 19.7267 67.7279 19.7267 67.9816C19.7267 68.3199 19.7267 68.7426 19.7267 69.0809L20.6375 72.5C22.1089 71.6544 25.0515 72.2941 23.2999 74.0699L28.2044 75V73.2243V66.6287C28.2044 66.5441 28.2044 66.5441 28.2044 66.4596V66.375C28.2044 66.2904 28.2044 66.1213 28.2745 66.0368C28.2745 65.9522 28.2745 65.7831 28.3445 65.6985C28.3445 65.5294 28.4146 65.4449 28.4146 65.2757C28.4846 65.1066 28.4846 64.9375 28.5547 64.7684C28.6948 64.4301 28.835 64.0074 28.9751 63.6691C29.1152 63.4154 29.1853 63.2463 29.3254 63.0772C29.3955 62.9926 29.5356 62.8235 29.6057 62.739L29.6757 62.6544C29.7458 62.5699 29.7458 62.4853 29.8159 62.4853C29.8859 62.4007 29.8859 62.4007 29.956 62.3162C30.026 62.2316 30.0961 62.2316 30.0961 62.1471C30.1662 62.0625 30.2362 61.9779 30.3764 61.8934H30.4464C30.4464 61.8934 30.4464 61.8934 30.5165 61.8934C30.4464 61.7243 30.5866 61.6397 30.7267 61.5551Z" fill="#FF4500"/>
<path d="M32.8862 59.6262H50.8762L52.4162 52.7834L52.7662 51.2708C52.6262 51.1988 52.4862 51.1988 52.2762 51.1267C51.9262 51.0547 51.5762 50.9827 51.2262 50.9107C51.0862 50.9107 50.8762 50.8386 50.7362 50.8386C50.3862 50.7666 50.0362 50.7666 49.6862 50.7666C49.5462 50.7666 49.3362 50.7666 49.1962 50.7666C48.9862 50.7666 48.8462 50.7666 48.7062 50.7666H35.1262C35.0562 50.7666 34.9162 50.7666 34.8462 50.7666C34.7762 50.7666 34.6362 50.7666 34.5662 50.7666C34.3562 50.7666 34.2162 50.7666 34.0062 50.7666C33.6562 50.7666 33.3062 50.8386 32.9562 50.8386C32.8162 50.8386 32.6062 50.9107 32.4662 50.9107C32.3262 50.9107 32.1162 50.9827 31.9762 50.9827C31.8362 51.0547 31.6262 51.0547 31.4862 51.1267C31.3462 51.1988 31.1362 51.1988 30.9962 51.2708L31.3462 52.7834L32.8862 59.6262Z" fill="#FF4500"/>
<path d="M63.6571 68.0073C63.6571 67.7546 63.6571 67.5018 63.5874 67.2491C63.5874 66.9963 63.5178 66.8278 63.5178 66.5751C63.5178 66.4908 63.5178 66.4066 63.5178 66.3223C63.5178 66.1538 63.4482 65.9853 63.4482 65.7326C63.4482 65.6484 63.4482 65.6484 63.4482 65.5641C63.4482 65.3956 63.3786 65.1429 63.309 64.9744C63.2393 64.8059 63.2393 64.5531 63.1697 64.3846C63.1001 64.1319 63.0305 63.8791 62.9609 63.6264C62.8912 63.3736 62.8216 63.0366 62.752 62.7839C62.752 62.7839 62.752 62.7839 62.752 62.6996C62.6128 62.1099 62.4039 61.6044 62.195 61.0147C62.1254 60.7619 61.9862 60.5934 61.9166 60.3407C61.7077 59.8352 61.4292 59.3297 61.1507 58.8242C61.0811 58.6557 61.0115 58.4872 60.8723 58.4029C60.8026 58.2344 60.733 58.1502 60.5938 57.9817C60.5242 57.8132 60.3849 57.7289 60.3153 57.5604C60.2457 57.4762 60.1761 57.3919 60.1064 57.3077C59.9672 57.1392 59.8976 56.9707 59.7583 56.8022C59.6887 56.7179 59.5495 56.5495 59.4798 56.381C59.4102 56.2967 59.4102 56.2967 59.3406 56.2125C59.271 56.044 59.1318 55.9597 58.9925 55.7912C58.714 55.4542 58.4355 55.2015 58.1571 54.8645C58.0874 54.7802 57.9482 54.696 57.8786 54.5275C57.3912 54.022 56.8343 53.6007 56.2773 53.1795C56.0685 53.011 55.9292 52.9267 55.7204 52.7582C55.3026 52.5055 54.9545 52.2527 54.5368 52L54.1887 53.8535L52.7267 61.5201C53.2836 61.8571 53.8406 62.3626 54.2583 62.9524C54.3976 63.1209 54.5368 63.3736 54.6064 63.5421C55.0938 64.4689 55.3026 65.4799 55.3026 66.5751V75L61.7267 73.5C61.7267 71.5 62.9609 73.5055 62.9609 73L63.7267 69.1026C63.7267 68.7656 63.7267 68.3443 63.6571 68.0073Z" fill="#FF4500"/>
<path d="M55.1471 38.9335L55.2171 38.8615C55.4271 38.3573 55.6371 37.709 55.8471 36.9167L55.9171 36.7727C55.9171 36.7006 55.9871 36.5566 55.9871 36.4845C56.1971 35.8363 56.4771 34.9719 56.3371 34.2516C56.2671 33.3873 55.7071 32.667 54.9371 32.2348C54.8671 32.1628 54.7271 32.1628 54.6571 32.0908C54.7271 31.8027 54.7971 31.5145 54.8671 31.1544C54.9371 30.9383 54.8671 30.7222 54.7271 30.5061C54.5871 30.3621 54.3771 30.218 54.1671 30.218H29.6671C29.4571 30.218 29.2471 30.29 29.1071 30.5061C28.9671 30.6502 28.8971 30.8663 28.9671 31.1544C29.0371 31.5145 29.1071 31.8027 29.1771 32.0908C29.1071 32.1628 28.9671 32.1628 28.8971 32.2348C28.1271 32.595 27.6371 33.3153 27.5671 34.1796C27.4271 34.9719 27.7071 35.8363 27.9171 36.4845C27.9171 36.6286 27.9871 36.7006 27.9871 36.8447L28.0571 36.9887C28.2671 37.7811 28.4771 38.4293 28.6871 38.9335V39.0056C28.9671 39.7258 29.5271 41.2385 30.9271 41.6706C31.1371 41.7427 31.3471 41.7427 31.4871 41.6706C32.8171 43.8315 34.0071 45.3441 35.1971 46.3525L35.2671 46.4245C35.3371 46.4966 37.8571 49.0176 41.7771 49.0176C41.8471 49.0176 41.9171 49.0176 41.9871 49.0176H41.8471C45.9071 49.1616 48.4971 46.4966 48.5671 46.4245L48.6371 46.3525C49.8271 45.2721 50.9471 43.8315 52.3471 41.6706C52.5571 41.6706 52.6971 41.6706 52.9771 41.6706C54.3771 41.1664 54.9371 39.5818 55.1471 38.9335Z" fill="#FF4500"/>
</svg>
