<svg width="84" height="86" viewBox="0 0 84 86" fill="none" xmlns="http://www.w3.org/2000/svg">
<ellipse cx="41.7267" cy="43.1594" rx="40" ry="41.1594" stroke="#FF4500" stroke-width="3"/>
<ellipse cx="42.2267" cy="43" rx="34.0274" ry="36" stroke="#FF4500" stroke-width="3"/>
<g clip-path="url(#clip0_5078_491)">
<path d="M64.1727 26.396C50.8907 25.12 43.4667 19.146 43.3507 19.03C42.4227 18.276 41.0887 18.276 40.1607 19.03C40.1027 19.088 32.6787 25.12 19.3387 26.396C18.0627 26.512 17.0767 27.614 17.0767 28.89C17.0767 62.646 39.8127 72.912 40.7987 73.318C41.1467 73.434 41.4367 73.55 41.7847 73.55C42.1327 73.55 42.4807 73.492 42.7707 73.318C43.7567 72.912 66.4927 62.646 66.4927 28.89C66.4347 27.614 65.4487 26.512 64.1727 26.396ZM41.7267 57.832C34.7087 57.832 29.0827 52.148 29.0827 45.188C29.0827 38.228 34.7087 32.544 41.7267 32.544C48.7447 32.544 54.3707 38.228 54.3707 45.188C54.3707 52.148 48.7447 57.832 41.7267 57.832Z" fill="#FF4500"/>
<path d="M44.9747 40.896L40.1607 45.71L38.2467 43.796C37.3767 42.926 35.9267 42.926 35.0567 43.796C34.1867 44.666 34.1867 46.116 35.0567 46.986L38.5367 50.466C39.0007 50.93 39.5807 51.104 40.1607 51.104C40.7407 51.104 41.3207 50.872 41.7847 50.466L48.2227 44.028C49.0927 43.158 49.0927 41.708 48.2227 40.838C47.2947 40.026 45.8447 40.026 44.9747 40.896Z" fill="#FF4500"/>
</g>
<defs>
<clipPath id="clip0_5078_491">
<rect width="58" height="58" fill="white" transform="translate(12.7267 17)"/>
</clipPath>
</defs>
</svg>
