<svg role="img" xmlns="http://www.w3.org/2000/svg" width="20" height="20" viewBox="0 0 32 32">
    <title>Basket icon</title>
    <path d="M0 14v-3h3.75l7.531-7.532A1.454 1.454 0 0 1 11.188 3a1.5 1.5 0 1 1 1.5 1.5c-.111 0-.209-.041-.312-.063L5.812 11h19.354l-6.525-6.579c-.129.036-.252.079-.391.079a1.5 1.5 0 1 1 1.5-1.5c0 .153-.045.293-.088.433L27.229 11H31v3H0zm24.869 14.902c-.293 1.172-1.105 1.107-1.105 1.107l-16.595.032c-.846 0-1.073-1.072-1.073-1.072L1.709 15.014l27.574-.026-4.414 13.914zM9.999 17h-1v5h1v-5zm0 6h-1v5h1v-5zm2-6H11v5h.999v-5zm0 6H11v5h.999v-5zm2-6h-1v5h1v-5zm0 6h-1v5h1v-5zM16 17h-1v5h1v-5zm0 6h-1v5h1v-5zm2-6h-1v5h1v-5zm0 6h-1v5h1v-5zm2-6h-1v5h1v-5zm0 6h-1v5h1v-5zm2-6h-1v5h1v-5zm0 6h-1v5h1v-5z"></path>
</svg>