<svg width="8" height="15" viewBox="0 0 8 15" fill="none" xmlns="http://www.w3.org/2000/svg">
<path d="M5.27349 14.1921L7.40689 13.522C7.70228 13.4292 7.82832 13.0906 7.70369 12.8127L6.74726 10.7136C6.62263 10.4357 6.28137 10.3051 5.99015 10.4002L4.43436 10.8889C4.02708 9.99717 3.62995 8.95814 3.28663 7.68248C2.94331 6.40681 2.76292 5.29982 2.66416 4.31123L4.21985 3.82254C4.51524 3.72976 4.72902 3.39965 4.69629 3.09288L4.46834 0.804518C4.43561 0.497745 4.1577 0.271657 3.86648 0.366731L1.73308 1.03683C1.73308 1.03683 0.183886 3.37525 1.49458 8.24537C2.80289 13.1198 5.27349 14.1921 5.27349 14.1921Z" fill="black"/>
</svg>
