<svg role="img" xmlns="http://www.w3.org/2000/svg" width="24" height="24" viewBox="0 0 24 24" class="icon">
	<title>Cart icon</title>
    <path d="M4.167 20.056a2.444 2.444 0 1 0 4.89 0 2.444 2.444 0 0 0-4.89 0zm12.222 0a2.444 2.444 0 1 0 4.889 0 2.444 2.444 0 0 0-4.889 0zm-7.887-5.779l13.527-3.865a.687.687 0 0 0 .471-.623V3.066H5.267V.988A.49.49 0 0 0 4.778.5H.989A.49.49 0 0 0 .5.988v1.956h2.375L5.28 14.013l.23 1.153v1.833c0 .269.22.489.489.489H22.01c.27 0 .489-.222.489-.489v-1.833H8.752c-1.404.001-1.433-.55-.25-.889z"></path>
</svg>