<svg width="43" height="43" viewBox="0 0 43 43" fill="none" xmlns="http://www.w3.org/2000/svg">
<path fill-rule="evenodd" clip-rule="evenodd" d="M21.5 2.38889C10.9452 2.38889 2.38889 10.9452 2.38889 21.5C2.38889 32.0548 10.9452 40.6111 21.5 40.6111C32.0548 40.6111 40.6111 32.0548 40.6111 21.5C40.6111 10.9452 32.0548 2.38889 21.5 2.38889ZM21.5 0C9.62588 0 0 9.62588 0 21.5C0 33.3741 9.62588 43 21.5 43C33.3741 43 43 33.3741 43 21.5C43 9.62588 33.3741 0 21.5 0Z" fill="#007BC7"/>
<path fill-rule="evenodd" clip-rule="evenodd" d="M12.1707 27.1344L21.5001 17.8049L30.8296 27.1344L33.0286 24.9354L21.5001 13.407L9.97168 24.9354L12.1707 27.1344Z" fill="#007BC7"/>
</svg>
