<svg width="76" height="110" viewBox="0 0 113 166" fill="none" xmlns="http://www.w3.org/2000/svg">
<path d="M47.5337 165.186C46.1479 165.186 44.5888 165.013 43.203 164.493C36.7937 162.588 32.8095 156.698 33.3291 150.116L36.1008 105.077H15.3136C10.6365 105.077 6.30584 102.825 3.361 99.0138C0.589378 95.2028 -0.276752 90.3525 1.10906 85.8486L23.9749 11.0149C25.8804 4.77877 31.5969 0.621338 38.1795 0.621338H77.5018C82.3521 0.621338 86.856 3.0465 89.6276 7.03071C92.3993 11.0149 92.919 16.2117 91.1867 20.7156L78.5412 53.2821H98.4622C103.659 53.2821 108.336 56.0537 110.761 60.5576C113.186 65.0615 113.186 70.6047 110.415 74.9354L59.6595 158.43C56.8879 162.761 52.384 165.186 47.5337 165.186ZM38.1795 13.7865C37.4866 13.7865 36.7937 14.3062 36.6204 14.9991L13.5813 89.8328C13.4081 90.5257 13.5813 91.0454 13.7546 91.3919C13.9278 91.7383 14.4475 92.0848 15.1404 92.0848H42.8566C44.5888 92.0848 46.3211 92.7777 47.7069 94.1635C48.9195 95.5493 49.6124 97.2816 49.4392 99.0138L46.3211 150.982C46.3211 151.328 46.3211 151.848 47.014 152.021C47.8801 152.194 48.0534 151.848 48.2266 151.501L99.1551 68.0063C99.3283 67.6599 99.3283 67.3134 99.1551 66.967C98.9819 66.6205 98.6354 66.4473 98.1157 66.4473H68.6673C66.5886 66.4473 64.5099 65.4079 63.2973 63.6757C62.0847 61.9434 61.7382 59.6915 62.6044 57.6128L79.0609 16.0385C79.4073 15.3456 79.0609 14.8259 78.8876 14.4794C78.7144 14.133 78.1947 13.7865 77.5018 13.7865H38.1795Z" fill="#007BC7"/>
</svg>
