<svg width="13" height="19" viewBox="0 0 13 19" fill="none" xmlns="http://www.w3.org/2000/svg">
<path d="M5.4358 18.8968C5.28273 18.8968 5.11052 18.8777 4.95745 18.8203C4.24949 18.6101 3.80941 17.9601 3.86681 17.2337L4.17296 12.2635H1.87688C1.36026 12.2635 0.881909 12.0149 0.556631 11.5944C0.250487 11.1738 0.154817 10.6386 0.307889 10.1415L2.83358 1.88331C3.04405 1.19512 3.67547 0.736328 4.40257 0.736328H8.74598C9.28174 0.736328 9.77922 1.00396 10.0854 1.44363C10.3915 1.88331 10.4489 2.4568 10.2576 2.95382L8.86079 6.54768H11.0612C11.6352 6.54768 12.1518 6.85354 12.4197 7.35057C12.6876 7.84759 12.6876 8.45931 12.3814 8.93722L6.77518 18.1513C6.46904 18.6292 5.97155 18.8968 5.4358 18.8968ZM4.40257 2.18917C4.32603 2.18917 4.24949 2.24652 4.23036 2.32298L1.68554 10.5812C1.6664 10.6577 1.68554 10.715 1.70467 10.7533C1.7238 10.7915 1.78121 10.8297 1.85774 10.8297H4.91918C5.11052 10.8297 5.30186 10.9062 5.45494 11.0591C5.58887 11.2121 5.66541 11.4032 5.64628 11.5944L5.30186 17.3293C5.30186 17.3675 5.30186 17.4249 5.3784 17.444C5.47407 17.4631 5.4932 17.4249 5.51234 17.3866L11.1377 8.17257C11.1569 8.13434 11.1569 8.0961 11.1377 8.05787C11.1186 8.01964 11.0803 8.00052 11.0229 8.00052H7.77015C7.54054 8.00052 7.31093 7.88582 7.177 7.69466C7.04306 7.5035 7.00479 7.25499 7.10046 7.02559L8.91819 2.43768C8.95646 2.36121 8.91819 2.30386 8.89906 2.26563C8.87992 2.2274 8.82252 2.18917 8.74598 2.18917H4.40257Z" fill="white"/>
</svg>
