<?xml version="1.0" encoding="utf-8"?>
<!-- Generator: Adobe Illustrator 25.0.0, SVG Export Plug-In . SVG Version: 6.00 Build 0)  -->
<svg version="1.1" id="Homeserve_mobile_logo" xmlns="http://www.w3.org/2000/svg" xmlns:xlink="http://www.w3.org/1999/xlink" x="0px" y="0px"
	 viewBox="0 0 682 127.8" xml:space="preserve">
<style type="text/css">
	.st0{fill:#E43D30;}
</style>
<path class="st0" d="M98.3,88.5c-7.9,9.8-20.5,15.7-33.9,15.7c-13.4,0-26.1-5.9-33.9-15.8c-0.6-0.8-0.9-1.7-0.8-2.7
	c0.1-1,0.6-1.8,1.4-2.4c0.6-0.5,1.4-0.8,2.3-0.8c1.1,0,2.2,0.5,2.8,1.4c6.5,8.2,17,13.1,28.2,13c11.2,0,21.7-4.8,28.2-13
	c0.7-0.9,1.7-1.4,2.8-1.4c0.8,0,1.6,0.3,2.3,0.8c0.8,0.6,1.2,1.5,1.3,2.4C99.1,86.8,98.9,87.7,98.3,88.5 M119.8,64
	c0-1.8-0.8-3.5-2-4.6L68.6,11.5c-1.1-1.1-2.7-1.8-4.4-1.8c-1.7,0-3.2,0.7-4.3,1.8L41.4,29.6v-3c0-3.4-2.8-6.2-6.2-6.2h-7
	c-3.4,0-6.2,2.8-6.2,6.2v22l-11.2,11C9.7,60.7,9,62.3,9,64c0,3.4,2.8,6.2,6.2,6.2h6.5l0,41.7c0,3.4,2.8,6.2,6.2,6.2h32.3h40.5
	c3.4,0,6.2-2.8,6.2-6.2l0-41.7h6.8C117,70.2,119.8,67.4,119.8,64 M201.6,113.6V46.5c0-2.9-1.5-4.5-4.4-4.5h-4.8
	c-3,0-4.5,1.6-4.5,4.5v27c-5.3,2.9-10.9,4.4-16.7,4.4c-6.2,0-12.3-1.8-17.9-5.2V46.5c0-2.9-1.5-4.5-4.4-4.5H144
	c-2.9,0-4.4,1.6-4.4,4.5v67.1c0,3,1.5,4.5,4.4,4.5h4.9c2.9,0,4.4-1.5,4.4-4.5V85.9c5.7,2.8,11.8,4.3,17.9,4.3
	c5.7,0,11.3-1.3,16.7-3.8v27.1c0,3,1.5,4.5,4.5,4.5h4.8C200.1,118.1,201.6,116.6,201.6,113.6 M251.7,90.8c0,10.2-7.4,17-16.2,17
	c-8.9,0-16.1-6.9-16.1-17.1c0-10.1,7.2-17.1,16.1-17.1C244.4,73.7,251.7,80.7,251.7,90.8 M265.5,90.8c0-16.7-13.4-28.6-30-28.6
	c-16.5,0-29.9,11.9-29.9,28.6c0,16.8,13.3,28.6,29.9,28.6C252.1,119.4,265.5,107.6,265.5,90.8 M352.6,113.6V82.9
	c0-14.4-6.5-20.8-17.8-20.8c-8.5,0-15.7,5.6-18.5,11.3H316c-2.2-7.4-7.7-11.3-15.9-11.3c-8.5,0-15.1,6.2-17.8,11.6h-0.2
	c0,0,0.2-1.3,0.2-2.5v-3.3c0-2.9-1.5-4.5-4.4-4.5h-4.2c-2.9,0-4.4,1.6-4.4,4.5v45.7c0,3,1.5,4.5,4.4,4.5h4.7c2.9,0,4.4-1.5,4.4-4.5
	V93.6c0-9.1,4.5-19,14.1-19c6.4,0,7.2,5,7.2,10.9v28.1c0,3,1.6,4.5,4.5,4.5h4.7c2.9,0,4.4-1.5,4.4-4.5V93.6c0-9.5,4.7-19,13.9-19
	c6.3,0,7.5,4.7,7.5,10.9v28.1c0,3,1.5,4.5,4.5,4.5h4.6C351,118.1,352.6,116.6,352.6,113.6 M368.7,87.8c-0.6-7.4,2.9-13.3,9.5-15.1
	c6-1.6,11.5,1.6,13.7,8.8c-3.3-0.4-7.3-0.1-11.8,1.1C375.6,83.8,371.7,85.6,368.7,87.8 M408.6,107.5c1.9-2,1.8-4.1-0.1-6.2l-1.8-1.7
	c-2-2-3.1-2.2-5.4-0.3c-2.1,2.2-5.9,5.9-10.7,7.2c-9.3,2.4-16.9-1.5-20.1-10.6l0,0c4.6,0.7,10.9,0.2,18-1.8c7.8-2.1,13.1-4.9,15.9-8
	l0,0c1.2-1.2,1.8-3,1.4-4.6c-3.9-14.5-15-22.9-30-18.9c-15.8,4.2-23.6,18.6-19.3,34.8c4,15,18.2,24.8,35.6,20.1
	C400.4,115.3,405.7,110.6,408.6,107.5 M426.4,62c0-5.2,4.5-8.6,11.5-8.6c5.9,0,10,2.4,13.1,4.2c2.2,1.2,4.5,1.6,6.1-1.5l1.9-3.5
	c1.3-2.4,1-4.4-1.4-6.1c-3.2-2.4-10.5-5.8-19.5-5.8c-14.4,0-25.5,8.7-25.5,22.1c0,23.7,35.3,20.7,35.3,35.2c0,5.1-4.3,8.7-11.3,8.7
	c-7.5,0-12.9-3.9-15.4-5.6c-2.7-1.5-4.5-1.4-6.2,1l-2.3,3.4c-2.1,2.9-1.1,4.7,0.6,6.2c3.7,2.9,12.5,7.7,23.2,7.7
	c15.9,0,25.1-10.2,25.1-22.5C461.7,72.6,426.4,76.3,426.4,62 M502.4,84c-3.1-1.2-7.1-1.7-11.7-1.5c-4.7,0.2-8.9,1.1-12.4,2.6
	c1-7.3,5.7-12.4,12.6-12.7C497,72.1,501.8,76.4,502.4,84 M515.9,87.1c-0.7-15-9.8-25.7-25.2-25c-16.3,0.7-27.1,13-26.4,29.8
	c0.7,15.5,12.4,28.1,30.4,27.3c8.5-0.4,14.8-3.9,18.2-6.3c2.3-1.5,2.6-3.7,1.2-6.1l-1.4-2.1c-1.5-2.4-2.5-2.9-5.2-1.5
	c-2.5,1.7-7,4.5-12,4.7c-9.6,0.3-16.2-5.2-17.4-14.7h0c4.4,1.7,10.6,2.5,18,2.2c8-0.3,13.9-2,17.3-4.3h0
	C515.1,90.3,516,88.7,515.9,87.1 M552.8,71.7v-4.2c0-3-1.1-4.5-4-4.5c-7.7,0-13.7,7.3-15.8,13.8h-0.2c0,0,0.3-1.7,0.3-3.8v-5.1
	c0-2.9-1.6-4.5-4.5-4.5h-4.2c-2.9,0-4.4,1.6-4.4,4.5v45.7c0,3,1.5,4.5,4.4,4.5h4.7c2.9,0,4.4-1.5,4.4-4.5V96
	c0-10,4.8-19.8,14.7-19.8C551.1,76.2,552.8,74.6,552.8,71.7 M607,68.6c1.1-3.1-0.3-5.2-3.6-5.2h-5c-2.6,0-4.3,1.2-5,3.8l-10.1,30.1
	c-1.1,3.2-1.9,8.3-1.9,8.3h-0.2c0,0-1-5-2-8.3l-10.1-30.1c-0.8-2.6-2.5-3.8-5-3.8h-5c-3.3,0-4.6,2-3.5,5.2l16.6,45.9
	c0.8,2.6,2.5,3.6,5,3.6h8.5c2.6,0,4.2-1.1,5-3.6L607,68.6z M642.5,84c-3.1-1.2-7.1-1.7-11.7-1.5c-4.7,0.2-8.9,1.1-12.3,2.6
	c1-7.3,5.7-12.4,12.6-12.7C637.2,72.1,642,76.4,642.5,84 M656.1,87.1c-0.7-15-9.8-25.7-25.2-25c-16.3,0.7-27.1,13-26.3,29.8
	c0.7,15.5,12.4,28.1,30.4,27.3c8.5-0.4,14.8-3.9,18.2-6.3c2.3-1.5,2.6-3.7,1.2-6.1l-1.4-2.1c-1.5-2.4-2.5-2.9-5.2-1.5
	c-2.5,1.7-7,4.5-12,4.7c-9.6,0.3-16.2-5.2-17.4-14.7h0c4.4,1.7,10.6,2.5,18,2.2c8-0.3,13.9-2,17.3-4.3h0
	C655.3,90.3,656.2,88.7,656.1,87.1"/>
<g>
	<path class="st0" d="M667.4,53.9c6.4,0,11.5,5.2,11.5,11.7c0,6.5-5.1,11.7-11.5,11.7c-6.3,0-11.4-5.2-11.4-11.7
		S661.1,53.9,667.4,53.9z M667.4,75.2c5.2,0,9.1-4.2,9.1-9.5c0-5.4-4-9.5-9.1-9.5c-5.1,0-9.1,4.2-9.1,9.5S662.3,75.2,667.4,75.2z
		 M663.5,59.6h4.7c2.3,0,3.8,1.4,3.8,3.7c0,1.9-1.2,3-2.2,3.2v0.1c0,0,0.1,0.1,0.4,0.7l2.3,4.5H670l-2.2-4.7h-2v4.7h-2.3L663.5,59.6
		L663.5,59.6z M667.7,65.3c1.2,0,2-0.8,2-2.1c0-1.2-0.8-2-2-2h-1.9v4H667.7z"/>
</g>
</svg>
