<?xml version="1.0" encoding="utf-8"?>
<!-- Generator: Adobe Illustrator 24.1.0, SVG Export Plug-In . SVG Version: 6.00 Build 0)  -->
<svg version="1.1" id="Homeserve_desktop_logo" xmlns="http://www.w3.org/2000/svg" xmlns:xlink="http://www.w3.org/1999/xlink" x="0px" y="0px"
	 viewBox="0 0 643.89 288.28" xml:space="preserve">
<style type="text/css">
	.st0{fill:#E43D30;}
</style>
<g>
	<g>
		<path class="st0" d="M188.58,212.16h-0.24c0,0,0.24-1.44,0.24-2.76v-3.72c0-3.24-1.68-5.04-4.92-5.04h-4.68
			c-3.24,0-4.92,1.8-4.92,5.04v51.12c0,3.36,1.68,5.04,4.92,5.04h5.28c3.24,0,4.92-1.68,4.92-5.04v-22.44
			c0-10.2,5.04-21.24,15.84-21.24c7.2,0,8.16,5.64,8.16,12.24v31.44c0,3.36,1.8,5.04,5.04,5.04h5.28c3.24,0,4.92-1.68,4.92-5.04
			v-22.44c0-10.68,5.28-21.24,15.6-21.24c7.08,0,8.4,5.28,8.4,12.24v31.44c0,3.36,1.68,5.04,5.04,5.04h5.16
			c3.24,0,5.04-1.68,5.04-5.04v-34.32c0-16.08-7.32-23.28-20.04-23.28c-9.6,0-17.64,6.24-20.88,12.6h-0.24
			c-2.52-8.28-8.64-12.6-17.88-12.6C199.02,199.2,191.58,206.16,188.58,212.16 M97.72,256.8v-75.12c0-3.24-1.68-5.04-4.92-5.04h-5.4
			c-3.36,0-5.04,1.8-5.04,5.04v30.23c-5.96,3.23-12.31,4.96-18.81,4.96c-7.01,0-13.84-2.04-20.19-5.76v-29.43
			c0-3.24-1.68-5.04-4.92-5.04h-5.52c-3.24,0-4.92,1.8-4.92,5.04v75.12c0,3.36,1.68,5.04,4.92,5.04h5.52c3.24,0,4.92-1.68,4.92-5.04
			v-31c6.46,3.14,13.26,4.85,20.19,4.85c6.44-0.01,12.77-1.47,18.81-4.2v30.34c0,3.36,1.68,5.04,5.04,5.04h5.4
			C96.04,261.84,97.72,260.16,97.72,256.8 M154.13,231.24c0,11.4-8.28,19.08-18.24,19.08c-9.96,0-18.12-7.68-18.12-19.08
			c0-11.28,8.16-19.08,18.12-19.08C145.85,212.16,154.13,219.96,154.13,231.24 M135.89,199.2c-18.6,0-33.6,13.32-33.6,32.04
			c0,18.84,15,32.04,33.6,32.04c18.6,0,33.72-13.2,33.72-32.04C169.61,212.52,154.49,199.2,135.89,199.2 M258.98,143.04
			c-8.84,11.02-23.09,17.61-38.12,17.62c-15.06-0.01-29.33-6.62-38.17-17.68c-0.68-0.85-0.99-1.91-0.87-3
			c0.12-1.1,0.66-2.07,1.52-2.75c0.73-0.58,1.61-0.89,2.55-0.89c1.26,0,2.43,0.56,3.2,1.54c7.29,9.15,19.17,14.6,31.77,14.6
			c12.58,0,24.44-5.44,31.73-14.55c0.78-0.98,1.95-1.54,3.19-1.54c0.93,0,1.82,0.31,2.55,0.9c0.85,0.68,1.39,1.66,1.51,2.75
			C259.97,141.12,259.66,142.19,258.98,143.04 M283.2,115.67c0-2.04-0.88-3.88-2.29-5.15L225.59,56.9c-1.26-1.26-3-2.04-4.92-2.04
			c-1.91,0-3.64,0.77-4.9,2.02l-20.8,20.28l0-3.39c0-3.84-3.11-6.95-6.95-6.95h-7.89c-3.84,0-6.95,3.11-6.95,6.95l-0.01,24.65
			l-12.64,12.33c-1.26,1.26-2.05,3-2.05,4.93c0,3.84,3.11,6.95,6.95,6.95l7.34,0l0.01,46.64c0,3.83,3.11,6.95,6.95,6.95h36.37h45.53
			c3.84,0,6.95-3.12,6.95-6.95l0.04-46.63l7.64,0C280.09,122.62,283.2,119.51,283.2,115.67 M285.72,227.89
			c-0.71-8.24,3.22-14.88,10.75-16.89c6.71-1.8,13,1.72,15.44,9.87c-3.73-0.49-8.17-0.15-13.24,1.21
			C293.52,223.46,289.14,225.47,285.72,227.89 M330.63,249.93c2.15-2.19,1.99-4.63-0.12-6.93l-2.01-1.95
			c-2.22-2.26-3.5-2.52-6.03-0.35c-2.32,2.48-6.59,6.64-12.05,8.04c-10.43,2.68-19.01-1.71-22.66-11.81l0.04-0.01
			c5.21,0.79,12.27,0.19,20.3-1.96c8.73-2.34,14.76-5.54,17.94-8.95l-0.02,0.01c1.4-1.32,2.03-3.31,1.55-5.09
			c-4.35-16.23-16.94-25.65-33.74-21.15c-17.74,4.75-26.6,20.79-21.73,38.99c4.5,16.81,20.46,27.69,40.05,22.44
			C321.43,258.73,327.45,253.39,330.63,249.93 M350.67,199.08c0-5.76,5.04-9.6,12.96-9.6c6.6,0,11.28,2.64,14.76,4.68
			c2.52,1.32,5.04,1.8,6.84-1.68l2.16-3.96c1.44-2.64,1.08-4.92-1.56-6.84c-3.6-2.64-11.88-6.48-21.96-6.48
			c-16.2,0-28.68,9.72-28.68,24.72c0,26.52,39.72,23.16,39.72,39.36c0,5.76-4.8,9.72-12.72,9.72c-8.4,0-14.52-4.32-17.28-6.24
			c-3-1.68-5.04-1.56-6.96,1.08l-2.64,3.84c-2.4,3.24-1.2,5.28,0.72,6.96c4.2,3.24,14.04,8.64,26.16,8.64
			c17.88,0,28.2-11.4,28.2-25.2C390.39,210.96,350.67,215.04,350.67,199.08 M436.19,223.65c-3.53-1.28-7.95-1.91-13.18-1.69
			c-5.33,0.23-10.04,1.25-13.9,2.87c1.09-8.2,6.37-13.83,14.15-14.17C430.2,210.37,435.57,215.17,436.19,223.65 M451.48,227.09
			c-0.73-16.79-10.98-28.71-28.37-27.95c-18.34,0.8-30.47,14.54-29.65,33.37c0.76,17.38,13.99,31.46,34.25,30.57
			c9.59-0.42,16.63-4.33,20.47-7.02c2.57-1.67,2.94-4.09,1.38-6.78l-1.54-2.34c-1.68-2.69-2.87-3.21-5.81-1.64
			c-2.8,1.92-7.87,5.05-13.5,5.24c-10.77,0.36-18.19-5.79-19.57-16.43l0.04,0c4.92,1.9,11.94,2.84,20.24,2.48
			c9.03-0.39,15.61-2.21,19.45-4.85h-0.02C450.51,230.75,451.56,228.94,451.48,227.09 M492.93,209.88v-4.68
			c0-3.36-1.2-5.04-4.56-5.04c-8.64,0-15.36,8.16-17.76,15.48h-0.24c0,0,0.36-1.92,0.36-4.2v-5.76c0-3.24-1.8-5.04-5.04-5.04h-4.68
			c-3.24,0-4.92,1.8-4.92,5.04l0,51.12c0,3.36,1.68,5.04,4.92,5.04h5.28c3.24,0,4.92-1.68,4.92-5.04v-19.68
			c0-11.16,5.4-22.2,16.56-22.2C491.01,214.92,492.93,213.12,492.93,209.88 M553.93,206.4c1.2-3.48-0.36-5.76-4.08-5.76h-5.64
			c-2.88,0-4.8,1.32-5.64,4.2l-11.4,33.72c-1.2,3.6-2.16,9.24-2.16,9.24h-0.24c0,0-1.08-5.64-2.28-9.24l-11.4-33.72
			c-0.84-2.88-2.76-4.2-5.64-4.2h-5.64c-3.72,0-5.16,2.28-3.96,5.76l18.72,51.36c0.84,2.88,2.76,4.08,5.64,4.08h9.6
			c2.88,0,4.68-1.2,5.64-4.08L553.93,206.4z M593.96,223.65c-3.53-1.28-7.95-1.91-13.18-1.69c-5.33,0.23-10.04,1.25-13.9,2.87
			c1.09-8.2,6.36-13.83,14.15-14.17C587.97,210.37,593.34,215.17,593.96,223.65 M609.25,227.09c-0.73-16.79-10.98-28.71-28.37-27.95
			c-18.34,0.8-30.47,14.54-29.65,33.37c0.76,17.38,13.99,31.46,34.25,30.57c9.59-0.42,16.63-4.33,20.47-7.02
			c2.57-1.67,2.94-4.09,1.38-6.78l-1.54-2.34c-1.68-2.69-2.87-3.21-5.81-1.64c-2.8,1.92-7.87,5.05-13.5,5.24
			c-10.77,0.36-18.18-5.79-19.56-16.43l0.04,0c4.92,1.9,11.93,2.84,20.24,2.48c9.03-0.39,15.61-2.21,19.45-4.85h-0.02
			C608.28,230.75,609.33,228.94,609.25,227.09"/>
	</g>
	<g>
		<path class="st0" d="M617.84,192.21c4.18,0,7.52,3.4,7.52,7.66c0,4.26-3.34,7.66-7.52,7.66c-4.14,0-7.45-3.4-7.45-7.66
			C610.39,195.61,613.71,192.21,617.84,192.21z M617.84,206.1c3.38,0,5.98-2.73,5.98-6.24c0-3.51-2.6-6.24-5.98-6.24
			c-3.34,0-5.92,2.73-5.92,6.24C611.92,203.37,614.5,206.1,617.84,206.1z M615.28,195.88h3.04c1.49,0,2.5,0.94,2.5,2.41
			c0,1.22-0.8,1.93-1.45,2.1v0.04c0,0,0.08,0.08,0.27,0.44l1.51,2.92h-1.64l-1.47-3.07h-1.28v3.07h-1.49V195.88z M618.03,199.64
			c0.78,0,1.28-0.5,1.28-1.34c0-0.82-0.5-1.28-1.28-1.28h-1.26v2.62H618.03z"/>
	</g>
</g>
</svg>
