<?xml version="1.0" encoding="UTF-8"?><svg xmlns="http://www.w3.org/2000/svg" viewBox="0 0 685.58 109.71"><defs><style>.d{fill:#e43d30;}</style></defs><g id="a"/><g id="b"><g id="c"><path class="d" d="M89.3,78.8c-7.86,9.84-20.52,15.73-33.87,15.74-13.38,0-26.06-5.92-33.92-15.8-.6-.75-.88-1.71-.77-2.69,.11-.98,.59-1.85,1.35-2.45,.65-.52,1.43-.8,2.27-.8,1.12,0,2.16,.51,2.84,1.38,6.48,8.17,17.03,13.05,28.23,13.04,11.18,0,21.72-4.85,28.19-13,.69-.87,1.73-1.37,2.84-1.37,.83,0,1.61,.27,2.27,.8,.76,.61,1.24,1.48,1.35,2.45,.1,.98-.18,1.93-.78,2.69m21.52-24.45c0-1.83-.78-3.47-2.03-4.61L59.63,1.82c-1.12-1.12-2.66-1.82-4.37-1.82s-3.24,.69-4.35,1.81l-18.48,18.12v-3.04c0-3.43-2.77-6.21-6.18-6.21h-7.01c-3.41,0-6.18,2.78-6.18,6.21v22.03L1.82,49.94c-1.12,1.12-1.82,2.68-1.82,4.41,0,3.42,2.76,6.21,6.17,6.21h6.52v41.67c0,3.42,2.77,6.21,6.18,6.21H91.65c3.41,0,6.18-2.78,6.18-6.21l.04-41.67h6.79c3.41,0,6.17-2.78,6.17-6.21m81.82,49.58V36.8c0-2.89-1.49-4.51-4.37-4.51h-4.8c-2.99,0-4.48,1.61-4.48,4.51v27.01c-5.29,2.88-10.94,4.44-16.72,4.44-6.23,0-12.3-1.82-17.94-5.15v-26.3c0-2.89-1.49-4.51-4.37-4.51h-4.91c-2.88,0-4.37,1.61-4.37,4.51V103.92c0,3,1.49,4.5,4.37,4.5h4.91c2.88,0,4.37-1.5,4.37-4.5v-27.7c5.74,2.81,11.78,4.33,17.94,4.34,5.72,0,11.34-1.32,16.72-3.75v27.11c0,3,1.49,4.5,4.48,4.5h4.8c2.88,0,4.37-1.5,4.37-4.5m50.12-22.84c0,10.19-7.35,17.05-16.21,17.05s-16.1-6.86-16.1-17.05,7.25-17.05,16.1-17.05,16.21,6.97,16.21,17.05m13.76,0c0-16.72-13.44-28.63-29.96-28.63s-29.85,11.91-29.85,28.63,13.33,28.63,29.85,28.63,29.96-11.8,29.96-28.63m87.12,22.84v-30.67c0-14.37-6.51-20.8-17.81-20.8-8.53,0-15.67,5.58-18.55,11.26h-.21c-2.24-7.4-7.68-11.26-15.89-11.26s-15.14,6.22-17.81,11.58h-.21s.21-1.29,.21-2.47v-3.32c0-2.89-1.49-4.51-4.37-4.51h-4.16c-2.88,0-4.37,1.61-4.37,4.51v45.68c0,3,1.49,4.5,4.37,4.5h4.69c2.88,0,4.37-1.5,4.37-4.5v-20.05c0-9.11,4.48-18.98,14.08-18.98,6.4,0,7.25,5.04,7.25,10.94v28.09c0,3,1.6,4.5,4.48,4.5h4.69c2.88,0,4.37-1.5,4.37-4.5v-20.05c0-9.54,4.69-18.98,13.86-18.98,6.29,0,7.46,4.72,7.46,10.94v28.09c0,3,1.49,4.5,4.48,4.5h4.58c2.88,0,4.48-1.5,4.48-4.5m16.04-25.83c-.63-7.37,2.86-13.29,9.55-15.1,5.97-1.6,11.55,1.55,13.72,8.82-3.31-.44-7.26-.13-11.76,1.08-4.58,1.23-8.47,3.03-11.51,5.19m39.9,19.69c1.91-1.96,1.77-4.14-.1-6.19l-1.79-1.74c-1.98-2.02-3.11-2.25-5.35-.31-2.06,2.22-5.85,5.93-10.71,7.18-9.27,2.4-16.89-1.53-20.13-10.55h.04c4.63,.69,10.9,.16,18.04-1.76,7.76-2.09,13.12-4.95,15.94-8h-.02c1.24-1.17,1.8-2.96,1.38-4.55-3.86-14.5-15.05-22.92-29.98-18.89-15.76,4.25-23.64,18.58-19.31,34.84,4,15.02,18.18,24.75,35.59,20.05,8.24-2.23,13.59-7,16.41-10.08m17.81-45.44c0-5.15,4.48-8.58,11.52-8.58,5.87,0,10.02,2.36,13.12,4.18,2.24,1.18,4.48,1.61,6.08-1.5l1.92-3.54c1.28-2.36,.96-4.4-1.38-6.11-3.2-2.36-10.55-5.79-19.51-5.79-14.39,0-25.48,8.68-25.48,22.09,0,23.7,35.29,20.7,35.29,35.17,0,5.14-4.26,8.69-11.3,8.69-7.46,0-12.9-3.87-15.35-5.58-2.67-1.51-4.48-1.4-6.19,.96l-2.34,3.43c-2.13,2.89-1.07,4.72,.64,6.22,3.73,2.89,12.47,7.72,23.24,7.72,15.89,0,25.06-10.19,25.06-22.52,0-24.23-35.29-20.59-35.29-34.85m75.99,21.95c-3.14-1.15-7.06-1.7-11.71-1.5-4.73,.21-8.92,1.12-12.35,2.57,.97-7.33,5.66-12.36,12.57-12.66,6.17-.27,10.94,4.02,11.49,11.6m13.58,3.08c-.65-15-9.76-25.66-25.21-24.98-16.3,.72-27.08,13-26.35,29.82,.68,15.53,12.43,28.11,30.43,27.32,8.52-.37,14.78-3.86,18.19-6.27,2.28-1.49,2.62-3.66,1.23-6.06l-1.37-2.09c-1.49-2.4-2.55-2.87-5.16-1.47-2.49,1.72-6.99,4.52-12,4.68-9.56,.32-16.16-5.17-17.38-14.68h.04c4.37,1.69,10.61,2.54,17.99,2.21,8.02-.35,13.87-1.98,17.28-4.34h-.02c1.47-.88,2.4-2.5,2.33-4.14m36.83-15.38v-4.18c0-3-1.07-4.51-4.05-4.51-7.68,0-13.65,7.29-15.78,13.84h-.21s.32-1.72,.32-3.76v-5.14c0-2.89-1.6-4.51-4.48-4.51h-4.16c-2.88,0-4.37,1.61-4.37,4.51v45.68c0,3,1.49,4.5,4.37,4.5h4.69c2.88,0,4.37-1.5,4.37-4.5v-17.59c0-9.97,4.8-19.84,14.72-19.84,2.88,0,4.58-1.61,4.58-4.5m54.2-3.11c1.07-3.11-.32-5.15-3.62-5.15h-5.01c-2.56,0-4.26,1.18-5.01,3.75l-10.13,30.13c-1.07,3.22-1.92,8.26-1.92,8.26h-.21s-.96-5.04-2.03-8.26l-10.13-30.13c-.75-2.57-2.45-3.75-5.01-3.75h-5.01c-3.31,0-4.58,2.04-3.52,5.15l16.64,45.89c.75,2.58,2.45,3.64,5.01,3.64h8.53c2.56,0,4.16-1.07,5.01-3.64l16.42-45.89Zm35.57,15.41c-3.14-1.15-7.06-1.7-11.72-1.5-4.73,.21-8.92,1.12-12.35,2.57,.97-7.33,5.66-12.36,12.57-12.66,6.17-.27,10.94,4.02,11.49,11.6m13.58,3.08c-.65-15-9.76-25.66-25.21-24.98-16.3,.72-27.08,13-26.35,29.82,.67,15.53,12.43,28.11,30.43,27.32,8.52-.37,14.77-3.86,18.19-6.27,2.28-1.49,2.62-3.66,1.23-6.06l-1.37-2.09c-1.49-2.4-2.55-2.87-5.16-1.47-2.49,1.72-6.99,4.52-12,4.68-9.57,.32-16.16-5.17-17.38-14.68h.04c4.37,1.69,10.6,2.54,17.98,2.21,8.02-.35,13.87-1.98,17.29-4.34h-.02c1.47-.88,2.4-2.5,2.33-4.14"/><g><path class="d" d="M648.64,53.73v-19.29h-6.89v-3.93h18.45v3.93h-6.87v19.29h-4.69Z"/><path class="d" d="M663.16,53.73V30.52h7.02l4.21,15.83,4.17-15.83h7.03v23.21h-4.36v-18.27l-4.61,18.27h-4.51l-4.59-18.27v18.27h-4.36Z"/></g></g></g></svg>