<?xml version="1.0" encoding="UTF-8" standalone="no"?>
<svg
  version="1.1"
  id="svg2"
  width="444.05334"
  height="432"
  viewBox="0 0 444.05334 432"
>
  <g id="g10" transform="matrix(1.3333333,0,0,-1.3333333,0,432)">
    <g id="g12" transform="scale(0.1)">
      <path
        d="m 3330.35,1616.27 c 0,54.57 -23.55,103.59 -61.03,137.58 L 1791.96,3185.66 c -33.59,33.6 -79.98,54.34 -131.25,54.34 -51.05,0 -97.24,-20.59 -130.87,-53.96 l -555.332,-541.43 -0.078,90.63 c 0,102.52 -83.125,185.6 -185.582,185.6 H 578.086 c -102.469,0 -185.586,-83.08 -185.586,-185.6 L 392.27,2077.05 54.6797,1747.91 C 20.9414,1714.33 0,1667.7 0,1616.27 c 0,-102.4 83.0195,-185.5 185.539,-185.54 l 196.004,0.04 0.254,-1245.211 C 381.797,83.1797 464.883,0 567.305,0 H 2754.24 c 102.47,0 185.55,83.1797 185.55,185.559 l 1.16,1245.171 203.9,0.04 c 102.49,0 185.5,83.1 185.5,185.5 M 2683.57,885.602 C 2447.5,591.211 2067.05,415.461 1665.78,415.199 1263.61,415.461 882.602,592.02 646.555,887.359 c -18.067,22.582 -26.325,51.032 -23.141,80.161 3.305,29.3 17.691,55.35 40.465,73.48 19.582,15.54 43.051,23.68 68.016,23.68 33.613,0 64.777,-14.92 85.488,-41.11 194.767,-244.172 511.937,-389.929 848.397,-389.879 335.93,0 652.7,145.27 847.31,388.539 20.88,26.04 52.02,40.99 85.3,40.99 24.91,0 48.51,-8.32 68.17,-23.99 22.81,-18.16 37.16,-44.199 40.41,-73.3 3.09,-29.18 -5.29,-57.739 -23.4,-80.328"
        style="fill:#e72e2c;fill-opacity:1;fill-rule:nonzero;stroke:none"
        id="path14"
      />
      <path
        d="m 3036.5,73.0586 c 7.19,0 11.86,4.6602 11.86,12.4414 0,7.582 -4.67,11.8398 -11.86,11.8398 h -11.66 V 73.0586 Z m -25.45,34.7814 h 28.18 c 13.79,0 23.11,-8.7384 23.11,-22.34 0,-11.2695 -7.38,-17.8789 -13.39,-19.4414 v -0.3867 c 0,0 0.77,-0.7735 2.52,-4.0821 l 13.99,-27 h -15.16 l -13.6,28.3711 h -11.86 V 34.5898 h -13.79 z m 23.7,-94.6291 c 31.3,0 55.38,25.2579 55.38,57.7188 0,32.4413 -24.08,57.6993 -55.38,57.6993 -30.89,0 -54.8,-25.258 -54.8,-57.6993 0,-32.4609 23.91,-57.7188 54.8,-57.7188 z m 0,128.6411 c 38.68,0 69.57,-31.493 69.57,-70.9223 C 3104.32,31.4688 3073.43,0 3034.75,0 c -38.27,0 -68.98,31.4688 -68.98,70.9297 0,39.4293 30.71,70.9223 68.98,70.9223"
        style="fill:#e72e2c;fill-opacity:1;fill-rule:nonzero;stroke:none"
        id="path16"
      />
    </g>
  </g>
</svg>