<svg xmlns="http://www.w3.org/2000/svg" viewbox="0 0 48 48">
  <path
    d="M 24 0 A 24 24 0 0 0 0 24 A 24 24 0 0 0 24 48 A 24 24 0 0 0 48 24 A 24 24 0 0 0 24 0 z M 16.800781 12.300781 L 31.199219 12.300781 C 33.699219 12.300781 35.699219 14.300781 35.699219 16.800781 L 35.699219 21.599609 L 35.699219 31.199219 C 35.699219 33.699219 33.699219 35.699219 31.199219 35.699219 L 16.800781 35.699219 C 14.300781 35.699219 12.300781 33.699219 12.300781 31.199219 L 12.300781 21.599609 L 12.300781 16.800781 C 12.300781 14.300781 14.300781 12.300781 16.800781 12.300781 z M 29 15 L 29 19 L 33 19 L 33 15.5 L 33 15 L 32.5 15 L 29 15 z M 24 19.900391 C 22.7 19.900391 21.399219 20.599609 20.699219 21.599609 C 20.199219 22.299609 19.900391 23.1 19.900391 24 C 19.900391 26.3 21.8 28.099609 24 28.099609 C 26.2 28.099609 28.099609 26.3 28.099609 24 C 28.099609 23.1 27.800781 22.299609 27.300781 21.599609 C 26.600781 20.599609 25.3 19.900391 24 19.900391 z M 14.599609 21.599609 L 14.599609 31.199219 C 14.599609 32.399219 15.600781 33.400391 16.800781 33.400391 L 31.199219 33.400391 C 32.399219 33.400391 33.400391 32.399219 33.400391 31.199219 L 33.400391 21.599609 L 29.900391 21.599609 C 30.200391 22.299609 30.400391 23.2 30.400391 24 C 30.400391 27.5 27.5 30.400391 24 30.400391 C 20.5 30.400391 17.599609 27.5 17.599609 24 C 17.599609 23.2 17.799609 22.299609 18.099609 21.599609 L 14.599609 21.599609 z ">
  </path>
</svg>