<svg width="19" height="19" viewBox="0 0 19 19" fill="none" xmlns="http://www.w3.org/2000/svg">
<path d="M15.6165 3.38352C13.9829 1.74997 11.8102 0.85 9.5 0.85C7.18969 0.85 5.01707 1.74997 3.38352 3.38352C1.74997 5.01707 0.85 7.18969 0.85 9.5C0.85 11.8102 1.74997 13.9829 3.38352 15.6165C5.01707 17.25 7.18969 18.15 9.5 18.15C11.8102 18.15 13.9829 17.25 15.6165 15.6165C17.25 13.9829 18.15 11.8102 18.15 9.5C18.15 7.18969 17.25 5.01707 15.6165 3.38352ZM5.42666 15.6195C5.80722 13.6926 7.49644 12.2819 9.5 12.2819C11.5037 12.2819 13.1928 13.6926 13.5733 15.6195C12.4064 16.3989 11.0055 16.8539 9.5 16.8539C7.99446 16.8539 6.5936 16.3989 5.42666 15.6195ZM6.94732 8.43309C6.94732 7.02556 8.09259 5.88041 9.5 5.88041C10.9074 5.88041 12.0527 7.02568 12.0527 8.43309C12.0527 9.8405 10.9074 10.9858 9.5 10.9858C8.09259 10.9858 6.94732 9.8405 6.94732 8.43309ZM11.8188 11.5029C12.7473 10.7999 13.3489 9.68567 13.3489 8.43309C13.3489 6.31071 11.6224 4.58431 9.5 4.58431C7.37763 4.58431 5.65122 6.31072 5.65122 8.43309C5.65122 9.68567 6.2528 10.7999 7.18118 11.5029C6.69841 11.73 6.24763 12.0288 5.84466 12.3935C5.13969 13.0316 4.62003 13.8341 4.32647 14.7206C2.98074 13.3869 2.14609 11.5392 2.14609 9.5C2.14609 5.44516 5.44516 2.14609 9.5 2.14609C13.5548 2.14609 16.8539 5.44516 16.8539 9.5C16.8539 11.5393 16.0193 13.387 14.6735 14.7207C14.38 13.8343 13.8604 13.0317 13.1553 12.3937C12.7524 12.029 12.3017 11.7301 11.8188 11.5029Z" fill="#007BC7" stroke="#007BC7" stroke-width="0.3"/>
</svg>
