<svg xmlns="http://www.w3.org/2000/svg" xmlns:xlink="http://www.w3.org/1999/xlink" x="0px" y="0px"
  viewbox="0 0 100 100" xml:space="preserve">
  <path class=""
    d="M50,0C22.4,0,0,22.4,0,50c0,27.6,22.4,50,50,50c27.6,0,50-22.4,50-50C100,22.4,77.6,0,50,0z M37.8,70.7H27.6 V38.1h10.1V70.7z M32.6,34.1c-3.2,0-5.3-2.3-5.3-5.1c0-2.9,2.1-5.1,5.4-5.1c3.3,0,5.3,2.2,5.3,5.1C38.1,31.9,36,34.1,32.6,34.1z M74.7,70.7H64.6V52.7c0-4.2-1.5-7.1-5.1-7.1c-2.8,0-4.5,1.9-5.2,3.8c-0.3,0.7-0.3,1.6-0.3,2.5v18.8H43.8V48.5 c0-4.1-0.1-7.5-0.3-10.4h8.8l0.5,4.5H53c1.3-2.1,4.6-5.3,10.1-5.3c6.7,0,11.7,4.5,11.7,14.1V70.7z">
  </path>
</svg>
