<svg width="9" height="14" viewBox="0 0 9 14" fill="none" xmlns="http://www.w3.org/2000/svg" class="icon">
<path d="M4.19358 0.624268C1.94601 0.624268 0.125488 2.48361 0.125488 4.77911C0.125488 5.38742 0.395198 6.2138 0.395198 6.2138C1.47403 9.043 4.06997 14.2653 4.06997 14.2653C4.10368 14.3341 4.14863 14.3743 4.18796 14.3743C4.22729 14.3743 4.27225 14.3399 4.30596 14.2653C4.30596 14.2653 6.9019 9.043 7.98073 6.2138C7.98073 6.2138 8.25043 5.38742 8.25043 4.77911C8.26167 2.48935 6.44114 0.624268 4.19358 0.624268ZM4.19358 6.6786C3.16532 6.6786 2.33934 5.82931 2.33934 4.78485C2.33934 3.7404 3.17094 2.89104 4.19358 2.89104C5.22184 2.89104 6.04782 3.7404 6.04782 4.78485C6.04782 5.82931 5.22184 6.6786 4.19358 6.6786Z" fill="#007BC7"/>
</svg>
