<svg width="19" height="19" viewBox="0 0 19 19" fill="none" xmlns="http://www.w3.org/2000/svg">
<circle cx="9.5" cy="9.5" r="9.5" fill="#E73C30"/>
<path d="M14.9364 15.3321C14.8828 11.9289 14.4407 10.9591 11.0575 10.3456C11.0575 10.3456 10.5807 10.9558 9.47147 10.9558C8.36161 10.9558 7.8855 10.3456 7.8855 10.3456C4.53891 10.9525 4.07063 11.9078 4.0085 15.2223C4.00327 15.4919 4.00065 15.507 4 15.4754V15.8331C4 15.8331 4.8051 17.465 9.47084 17.465C14.1359 17.465 14.9417 15.8331 14.9417 15.8331V15.5688C14.937 15.49 14.9353 15.411 14.9364 15.3321V15.3321ZM9.47147 10.0741C11.0712 10.0741 12.3681 8.49013 12.3681 6.5367C12.3681 4.58326 11.9423 3 9.47147 3C7.00061 3 6.57486 4.58392 6.57486 6.5367C6.5742 8.49013 7.8711 10.0741 9.47147 10.0741Z" fill="white"/>
</svg>
