<svg role="img" version="1.1" xmlns="http://www.w3.org/2000/svg" xmlns:xlink="http://www.w3.org/1999/xlink" x="0px" y="0px" width="170px" height="27px" viewBox="0 0 170 27" enable-background="new 0 0 170 27" xml:space="preserve" class="logo-homeserve">
	<title>HomeServe Logo Text</title>
<path fill="#E7352D" d="M47.583,11.444h-0.068c0,0,0.068-0.422,0.068-0.789V9.587c0-0.933-0.486-1.457-1.422-1.457h-1.354
c-0.936,0-1.422,0.524-1.422,1.457v14.701c0,0.973,0.487,1.456,1.422,1.456h1.521c0.936,0,1.422-0.483,1.422-1.456v-6.459
c0-2.927,1.457-6.099,4.567-6.099c2.073,0,2.341,1.62,2.341,3.525v9.053c0,0.966,0.518,1.456,1.453,1.456h1.524
c0.936,0,1.419-0.49,1.419-1.456V17.85c0-3.077,1.524-6.105,4.485-6.105c2.038,0,2.409,1.524,2.409,3.525v9.053
c0,0.966,0.483,1.456,1.453,1.456h1.491c0.936,0,1.453-0.49,1.453-1.456v-9.869c0-4.629-2.106-6.711-5.769-6.711
c-2.76,0-5.07,1.797-6.006,3.634h-0.068c-0.718-2.375-2.491-3.634-5.152-3.634C50.575,7.715,48.434,9.716,47.583,11.444
M21.42,24.288V2.678c0-0.938-0.483-1.456-1.419-1.456h-1.559c-0.97,0-1.453,0.518-1.453,1.456v8.698
c-1.708,0.939-3.546,1.423-5.421,1.423c-2.021,0-3.982-0.585-5.802-1.653V2.678c0-0.938-0.487-1.456-1.423-1.456H2.788
c-0.936,0-1.422,0.518-1.422,1.456v21.61c0,0.973,0.487,1.456,1.422,1.456h1.589c0.936,0,1.419-0.483,1.419-1.456v-8.909
c1.858,0.898,3.815,1.388,5.806,1.401c1.858,0,3.679-0.422,5.421-1.204v8.732c0,0.966,0.483,1.456,1.453,1.456h1.555
C20.954,25.744,21.42,25.261,21.42,24.288 M37.663,16.931c0,3.28-2.375,5.485-5.251,5.485c-2.879,0-5.22-2.205-5.22-5.485
c0-3.247,2.341-5.486,5.22-5.486C35.288,11.444,37.663,13.684,37.663,16.931 M32.412,7.715c-5.353,0-9.668,3.825-9.668,9.216
c0,5.417,4.315,9.215,9.668,9.215s9.699-3.798,9.699-9.215C42.111,11.54,37.765,7.715,32.412,7.715 M75.533,15.978
c-0.201-2.375,0.919-4.288,3.094-4.873c1.943-0.518,3.747,0.503,4.451,2.845c-1.072-0.129-2.358-0.048-3.815,0.354
C77.775,14.705,76.52,15.27,75.533,15.978 M88.443,22.314c0.621-0.634,0.572-1.341-0.029-1.988l-0.586-0.551
c-0.637-0.653-1.004-0.722-1.738-0.103c-0.671,0.715-1.893,1.906-3.465,2.308c-3.012,0.77-5.469-0.504-6.524-3.396h0.017
c1.504,0.238,3.529,0.048,5.836-0.564c2.511-0.667,4.25-1.593,5.168-2.58l0,0c0.402-0.388,0.586-0.952,0.453-1.47
c-1.256-4.669-4.866-7.378-9.719-6.092c-5.102,1.375-7.661,5.989-6.255,11.23c1.287,4.832,5.888,7.956,11.526,6.452
C85.803,24.839,87.543,23.301,88.443,22.314 M94.217,7.681c0-1.654,1.455-2.757,3.729-2.757c1.906,0,3.246,0.749,4.248,1.348
c0.721,0.389,1.455,0.518,1.973-0.483l0.627-1.136c0.414-0.749,0.312-1.423-0.457-1.975c-1.041-0.748-3.408-1.857-6.322-1.857
c-4.67,0-8.25,2.797-8.25,7.112c0,7.623,11.428,6.656,11.428,11.325c0,1.654-1.387,2.791-3.66,2.791c-2.41,0-4.188-1.239-4.969-1.79
c-0.871-0.483-1.457-0.456-2.008,0.319l-0.75,1.103c-0.693,0.939-0.354,1.525,0.197,2.008c1.205,0.933,4.051,2.491,7.529,2.491
c5.152,0,8.105-3.28,8.105-7.262C105.656,11.104,94.217,12.274,94.217,7.681 M118.84,14.752c-1.02-0.367-2.293-0.544-3.797-0.482
c-1.539,0.067-2.9,0.367-4.002,0.823c0.32-2.362,1.844-3.988,4.07-4.084C117.111,10.927,118.65,12.315,118.84,14.752
M123.238,15.746c-0.219-4.839-3.158-8.263-8.162-8.045c-5.287,0.231-8.766,4.179-8.527,9.597c0.217,5.003,4.029,9.052,9.848,8.794
c2.758-0.109,4.785-1.232,5.889-2.015c0.734-0.49,0.857-1.178,0.4-1.961l-0.455-0.667c-0.477-0.775-0.816-0.925-1.668-0.476
c-0.803,0.558-2.26,1.456-3.887,1.511c-3.09,0.095-5.227-1.675-5.635-4.737h0.02c1.424,0.558,3.432,0.816,5.82,0.722
c2.594-0.116,4.506-0.64,5.607-1.402l0,0C122.951,16.794,123.252,16.277,123.238,15.746 M135.162,10.791V9.437
c0-0.973-0.348-1.456-1.307-1.456c-2.492,0-4.41,2.341-5.119,4.451h-0.061c0,0,0.102-0.552,0.102-1.205v-1.66
c0-0.933-0.518-1.45-1.457-1.45h-1.361c-0.932,0-1.414,0.518-1.414,1.45v14.708c0,0.973,0.482,1.449,1.414,1.449h1.525
c0.939,0,1.422-0.477,1.422-1.449v-5.67c0-3.212,1.559-6.391,4.771-6.391C134.611,12.248,135.162,11.73,135.162,10.791
M152.709,9.784c0.354-1.001-0.096-1.654-1.172-1.654h-1.619c-0.838,0-1.389,0.388-1.619,1.205l-3.281,9.705
c-0.354,1.035-0.619,2.654-0.619,2.654h-0.068c0,0-0.32-1.619-0.654-2.654l-3.273-9.705c-0.238-0.838-0.789-1.205-1.627-1.205
h-1.619c-1.068,0-1.49,0.653-1.137,1.654l5.383,14.789c0.238,0.838,0.805,1.171,1.627,1.171h2.758c0.836,0,1.354-0.347,1.625-1.171
L152.709,9.784z M164.238,14.752c-1.021-0.367-2.295-0.544-3.799-0.482c-1.537,0.067-2.898,0.367-4.002,0.823
c0.32-2.362,1.824-3.988,4.07-4.084C162.51,10.927,164.047,12.315,164.238,14.752 M168.635,15.746
c-0.217-4.839-3.158-8.263-8.168-8.045c-5.281,0.231-8.76,4.179-8.521,9.597c0.211,5.003,4.029,9.052,9.85,8.794
c2.756-0.109,4.785-1.232,5.887-2.015c0.736-0.49,0.852-1.178,0.402-1.961l-0.457-0.667c-0.477-0.775-0.816-0.925-1.666-0.476
c-0.805,0.558-2.26,1.456-3.887,1.511c-3.09,0.095-5.229-1.675-5.637-4.737h0.021c1.422,0.558,3.424,0.816,5.818,0.722
c2.594-0.116,4.5-0.64,5.609-1.402l0,0C168.35,16.794,168.648,16.277,168.635,15.746"></path>
</svg>