<svg role="img" x="0px" y="0px" width="38px" height="38px" viewBox="0 0 38 38" enable-background="new 0 0 38 38" xml:space="preserve">
  <title>HomeServe Logo Icon</title>
  <path d="M29.979,26.91c-2.541,3.18-6.639,5.071-10.972,5.071c-4.332,0-8.449-1.909-10.991-5.087
    c-0.201-0.249-0.283-0.553-0.249-0.869c0.031-0.316,0.184-0.602,0.432-0.785c0.218-0.167,0.47-0.252,0.739-0.252
    c0.367,0,0.701,0.166,0.918,0.436c2.09,2.627,5.52,4.199,9.15,4.199c3.611,0,7.042-1.572,9.132-4.182
    c0.217-0.287,0.568-0.437,0.922-0.437c0.266,0,0.518,0.085,0.734,0.252c0.252,0.2,0.402,0.466,0.436,0.786
    C30.267,26.359,30.164,26.662,29.979,26.91 M36.939,19.033c0-0.585-0.252-1.12-0.653-1.487L20.362,2.123
    c-0.367-0.367-0.871-0.585-1.422-0.585c-0.551,0-1.055,0.218-1.405,0.585l-5.99,5.836v-0.97c0-1.103-0.902-2.004-2.004-2.004H7.264
    c-1.103,0-2.008,0.902-2.008,2.004v7.092l-3.61,3.533c-0.371,0.367-0.585,0.868-0.585,1.419c0,1.106,0.885,2.008,2.004,2.008h2.11
    v13.414c0,1.103,0.902,2.008,2.008,2.008h10.468h13.098c1.105,0,2.008-0.905,2.008-2.008l0.018-13.414h2.191
    C36.052,21.041,36.939,20.139,36.939,19.033"></path>
</svg>