<svg role="img" id="Layer_1" data-name="Layer 1" xmlns="http://www.w3.org/2000/svg" viewBox="0 0 506.03 181.59">
	<title>HomeServe logo</title>
    <defs>
        <style>
        .cls-1 {
            fill: #e7342c;
        }
        </style>
    </defs>
    <path class="cls-1" d="M139.84,136.89c-.25,0,0-1.18,0-2.36v-3.21c0-2.95-1.43-4.38-4.38-4.38h-4.14c-2.95,0-4.38,1.43-4.38,4.38v44.37c0,2.95,1.43,4.38,4.38,4.38h4.73c3,0,4.38-1.43,4.38-4.38v-19.4c0-8.86,4.39-18.56,13.83-18.56,6.16,0,7.09,5,7.09,10.55V175.6c0,3,1.43,4.39,4.39,4.39h4.72c2.95,0,4.38-1.43,4.38-4.39V156.21c0-9.37,4.73-18.56,13.5-18.56,6.16,0,7.34,4.72,7.34,10.54v27.33c0,2.95,1.43,4.38,4.38,4.38h4.39c3,0,4.39-1.43,4.39-4.38V145.83c0-14.09-6.5-20.24-17.38-20.24a21.36,21.36,0,0,0-18.22,10.88H173c-2-7.34-7.68-10.88-15.6-10.88C148.91,125.76,142.46,131.58,139.84,136.89Zm-79.11,38.8V110.41c0-3-1.44-4.39-4.39-4.39H51.62c-3,0-4.39,1.43-4.39,4.39v26.48a32.73,32.73,0,0,1-16.44,4.39,35,35,0,0,1-17.63-5V110.74c0-2.95-1.44-4.38-4.39-4.38H4.39c-3,0-4.39,1.43-4.39,4.38v65.54c0,2.95,1.43,4.38,4.39,4.38H9.11c3,0,4.39-1.43,4.39-4.38V149.2a41.21,41.21,0,0,0,17.62,4.14,40.22,40.22,0,0,0,16.45-3.55v26.49c0,2.95,1.43,4.38,4.39,4.38h4.72C59.29,180.07,60.73,178.64,60.73,175.69Zm49.09-22c0,10-7.34,16.79-15.86,16.79S78.1,163.73,78.1,153.69c0-9.69,7.09-16.78,15.86-16.78s15.86,6.73,15.86,16.76ZM94,125.76c-16.19,0-29.35,11.47-29.35,27.91S77.51,181.59,94,181.59s29.35-11.47,29.35-27.92S110.15,125.76,94,125.76Zm107-49.09c-7.68,9.7-20,15.26-33.23,15.26a43.18,43.18,0,0,1-33.24-15.26,4.64,4.64,0,0,1-.84-2.62,3.72,3.72,0,0,1,1.18-2.36,3.2,3.2,0,0,1,2.36-.84,3.11,3.11,0,0,1,2.62,1.43,36.58,36.58,0,0,0,55.33,0,3.6,3.6,0,0,1,2.61-1.43,4,4,0,0,1,2.36.84,2.73,2.73,0,0,1,1.18,2.36A2.08,2.08,0,0,1,200.91,76.67Zm21.17-23.79a6.12,6.12,0,0,0-2-4.38L171.91,1.77A5.21,5.21,0,0,0,167.76,0a6,6,0,0,0-4.39,1.77L145.16,19.4V16.45A6.19,6.19,0,0,0,139,10.29h-6.75a6.19,6.19,0,0,0-6.16,6.16V37.87L115.21,48.75a5.91,5.91,0,0,0-1.77,4.39,6.19,6.19,0,0,0,6.16,6.15h6.49V99.86a6.19,6.19,0,0,0,6.16,6.16h71.36a6.19,6.19,0,0,0,6.15-6.16V59.29h6.75A6.35,6.35,0,0,0,222.08,52.88Zm2.36,97.84c-.59-7.08,2.95-12.9,9.36-14.67,5.9-1.44,11.13,1.43,13.5,8.52a33.69,33.69,0,0,0-11.48,1.18A25.18,25.18,0,0,0,224.44,150.72Zm39,19.06c1.77-1.77,1.77-4.13,0-6.15l-2-1.44c-2-2-3-2-5.32-.25-2,2-5.9,5.9-10.54,7.08-9.11,2.37-16.45-1.43-19.65-10.28A44.9,44.9,0,0,0,243.59,157c7.67-2,12.9-4.72,15.6-7.92a5,5,0,0,0,1.43-4.39c-3.79-14.09-14.67-22.35-29.35-18.56-15.6,4.14-23.19,18.22-18.81,34.08,3.8,14.68,18,24.12,35,19.4a35.14,35.14,0,0,0,16-9.83Zm17.47-44.36c0-5,4.39-8.27,11.14-8.27,5.9,0,9.7,2.36,12.9,4.14,2,1.18,4.39,1.43,5.91-1.44l1.77-3.54c1.18-2.36.84-4.39-1.44-5.9-3.2-2.37-10.29-5.57-19.06-5.57-14.08,0-25,8.52-25,21.42,0,23.2,34.66,20.25,34.66,34.42,0,5-4.13,8.51-11.13,8.51-7.34,0-12.65-3.79-15-5.31-2.62-1.43-4.39-1.43-6.16.84l-2,3c-2,2.95-1.18,4.72.6,6.15,3.54,2.95,12.31,7.68,22.94,7.68,15.6,0,24.71-10,24.71-22C315.53,135.71,280.91,139.51,280.91,125.42Zm74.4,21.51a26.78,26.78,0,0,0-11.47-1.44,34.52,34.52,0,0,0-12.07,2.62c.85-7.09,5.57-12.06,12.32-12.32,6.11-.33,10.58,3.72,11.17,11.14Zm13.49,2.86c-.59-14.67-9.7-25-24.71-24.37-15.86.59-26.49,12.65-25.9,29.1.6,15,12.07,27.33,29.69,26.74a34.06,34.06,0,0,0,18-6.16c2.36-1.44,2.61-3.55,1.18-5.91l-1.43-2c-1.44-2.36-2.62-2.95-5-1.43a23.29,23.29,0,0,1-11.72,4.72c-9.37.25-15.86-5-17-14.42,4.38,1.77,10.29,2.36,17.63,2,7.92-.25,13.49-2,17-4.13a4.86,4.86,0,0,0,2.21-4.14Zm35.85-14.92v-4.14c0-2.95-1.18-4.38-4.14-4.38-7.67,0-13.49,7.08-15.6,13.49h-.25a28,28,0,0,0,.25-3.54v-5c0-3-1.43-4.38-4.38-4.38h-4.14c-2.95,0-4.38,1.43-4.38,4.38v44.37c0,3,1.43,4.38,4.38,4.38h4.72c3,0,4.39-1.43,4.39-4.38v-17c0-9.7,4.72-19.4,14.42-19.4,3.16,0,4.68-1.54,4.68-4.4Zm53.22-3c1.18-3-.26-5-3.54-5h-5a4.77,4.77,0,0,0-5,3.54l-10,29.35a43.91,43.91,0,0,0-1.77,7.93h-.25a50.31,50.31,0,0,0-2-7.93l-10-29.35c-.59-2.62-2.36-3.54-5-3.54h-5c-3.21,0-4.39,2-3.55,5L423,176.58c.59,2.61,2.36,3.54,5,3.54h8.26a4.77,4.77,0,0,0,5-3.54Zm34.92,15a26.78,26.78,0,0,0-11.47-1.44,34.52,34.52,0,0,0-12.07,2.62c.85-7.09,5.57-12.06,12.32-12.32,5.85-.27,10.58,3.78,11.17,11.2ZM506,149.73c-.59-14.67-9.7-25-24.71-24.37-15.86.59-26.49,12.65-25.9,29.1.59,15,12.06,27.33,29.69,26.74a34.14,34.14,0,0,0,18-6.16c2.36-1.44,2.61-3.55,1.18-5.91l-1.44-2c-1.43-2.36-2.61-2.95-5-1.43a23.32,23.32,0,0,1-11.73,4.72c-9.36.25-15.85-5-17-14.42,4.38,1.77,10.29,2.36,17.62,2,7.93-.25,13.5-2,17-4.13a4.67,4.67,0,0,0,2.24-4.08Z" transform="translate(0 0)" />
</svg>