<svg width="9" height="14" viewBox="0 0 9 14" fill="none" xmlns="http://www.w3.org/2000/svg">
<path d="M6.70802 0H1.45826C0.653303 0 0 0.653333 0 1.45833V12.5417C0 13.3467 0.653303 14 1.45826 14H6.70802C7.51298 14 8.16628 13.3467 8.16628 12.5417V1.45833C8.16628 0.653333 7.51298 0 6.70802 0ZM4.08314 13.5742C3.5115 13.5742 3.05069 13.1133 3.05069 12.5417C3.05069 11.97 3.5115 11.5092 4.08314 11.5092C4.65478 11.5092 5.11559 11.97 5.11559 12.5417C5.11559 13.1133 4.65478 13.5742 4.08314 13.5742ZM1.16661 11.0833V2.33333H6.99967V11.0833H1.16661Z" fill="black"/>
</svg>
