<svg role="img" xmlns="http://www.w3.org/2000/svg" width="24" height="24" viewBox="388 288 24 24" class="icon">
	<title>Person icon</title>
    <path d="M408.35 307.757c-.082-5.176-.758-6.651-5.931-7.584 0 0-.729.928-2.425.928-1.697 0-2.425-.928-2.425-.928-5.117.923-5.833 2.376-5.928 7.417-.008.41-.012.433-.013.385v.544s1.231 2.482 8.365 2.482c7.133 0 8.365-2.482 8.365-2.482v-.402a4.855 4.855 0 0 1-.008-.36zM399.994 299.76c2.446 0 4.429-2.409 4.429-5.38s-.651-5.379-4.429-5.379c-3.778 0-4.429 2.409-4.429 5.379-.001 2.971 1.982 5.38 4.429 5.38z"></path>
</svg>