<svg xmlns="http://www.w3.org/2000/svg" width="24" height="24" viewBox="244 244 24 24" class="phone-icon">
    <path d="M245.683 264.991l1.564 1.564c.279.278 1.098.454 1.124.454a18.486 18.486 0 0 0 13.228-5.409 18.476 18.476 0 0 0 5.407-13.269c0-.003-.179-.798-.458-1.076l-1.565-1.566c-.572-.573-1.672-.833-2.443-.576l-.33.111c-.77.256-1.574 1.106-1.787 1.889l-.789 2.892c-.213.784.074 1.9.647 2.474l1.046 1.046a11.093 11.093 0 0 1-7.809 7.809l-1.046-1.046c-.573-.573-1.691-.86-2.476-.647l-2.891.79c-.78.212-1.631 1.016-1.89 1.787l-.109.329c-.256.771.003 1.87.577 2.444z"></path>
</svg>