<?xml version="1.0" encoding="utf-8"?>
<!-- Generator: Adobe Illustrator 22.1.0, SVG Export Plug-In . SVG Version: 6.00 Build 0)  -->
<svg version="1.1" id="icons" xmlns="http://www.w3.org/2000/svg" xmlns:xlink="http://www.w3.org/1999/xlink" x="0px" y="0px"
	 viewBox="0 0 32 29.2" style="enable-background:new 0 0 32 29.2;" xml:space="preserve">
<style type="text/css">
	.st0{fill:#FFFFFF;}
</style>
<path class="st0" d="M1.4,22.2V9h25v2.8h1.4V3.5c0-1.2-0.9-2.1-2.1-2.1h-2.8V0h-1.4v1.4h-2.8V0h-1.4v1.4h-2.8V0h-1.4v1.4h-2.8V0H9
	v1.4H6.3V0H4.9v1.4H2.1C0.9,1.4,0,2.3,0,3.5v18.8c0,1.2,0.9,2.1,2.1,2.1h12.5V23H2.1C1.7,22.9,1.4,22.6,1.4,22.2z M2.1,2.8h2.8v1.4
	h1.4V2.8H9v1.4h1.4V2.8h2.8v1.4h1.4V2.8h2.8v1.4h1.4V2.8h2.8v1.4H23V2.8h2.8c0.4,0,0.7,0.3,0.7,0.7v4.2h-25V3.5
	C1.4,3.1,1.7,2.8,2.1,2.8z M23.6,12.5c-4.6,0-8.3,3.7-8.3,8.3s3.7,8.3,8.3,8.3s8.3-3.7,8.3-8.3S28.2,12.5,23.6,12.5z M23.6,27.8
	c-3.8,0-7-3.1-7-7s3.1-7,7-7s7,3.1,7,7S27.5,27.8,23.6,27.8z M24.3,20.2h3.5v1.4h-4.9V16h1.4V20.2z"/>
</svg>
