<svg xmlns="http://www.w3.org/2000/svg" viewbox="0 0 100 100">
  <path class=""
    d="M50 0C22.4 0 0 22.4 0 50s22.4 50 50 50 50-22.4 50-50S77.6 0 50 0zm20.3 41v1.3c0 13-9.9 28-28 28-5.6 0-10.7-1.6-15.1-4.4.8.1 1.6.1 2.3.1 4.6 0 8.9-1.6 12.2-4.2-4.3-.1-7.9-2.9-9.2-6.8.6.1 1.2.2 1.9.2.9 0 1.8-.1 2.6-.3-4.5-.9-7.9-4.9-7.9-9.7v-.1c1.3.7 2.8 1.2 4.5 1.2-2.6-1.8-4.4-4.8-4.4-8.2 0-1.8.5-3.5 1.3-4.9 4.9 6 12.1 9.9 20.3 10.3-.2-.7-.3-1.5-.3-2.2 0-5.4 4.4-9.8 9.8-9.8 2.8 0 5.4 1.2 7.2 3.1 2.2-.4 4.4-1.3 6.3-2.4-.7 2.3-2.3 4.2-4.3 5.4 2-.2 3.9-.8 5.7-1.6-1.3 1.8-2.9 3.6-4.9 5z">
  </path>
</svg>
