<svg width="70" height="110" viewBox="0 0 107 163" fill="none" xmlns="http://www.w3.org/2000/svg">
<path d="M53.499 0.421875C51.5365 0.421875 49.6872 1.44089 48.6682 3.13924C43.7618 11.2536 0.661316 82.9997 0.661316 109.871C0.661316 139.008 24.3628 162.709 53.499 162.709C82.6353 162.709 106.337 139.008 106.337 109.871C106.337 82.9997 63.2363 11.2536 58.3299 3.13924C57.3109 1.44089 55.4616 0.421875 53.499 0.421875ZM53.499 151.387C30.5901 151.387 11.9837 132.78 11.9837 109.871C11.9837 91.9821 38.5912 42.692 53.499 17.179C68.4068 42.692 95.0144 91.9821 95.0144 109.871C95.0144 132.78 76.408 151.387 53.499 151.387Z" fill="#007BC7"/>
<path d="M47.8381 124.796C47.8381 127.929 50.3668 130.457 53.4993 130.457C73.2757 130.457 89.3535 114.38 89.3535 94.6032C89.3535 91.4707 86.8248 88.942 83.6923 88.942C80.5598 88.942 78.0311 91.4707 78.0311 94.6032C78.0311 108.115 67.0107 119.135 53.4993 119.135C50.3668 119.135 47.8381 121.664 47.8381 124.796Z" fill="#007BC7"/>
</svg>
