<svg width="13" height="19" viewBox="0 0 13 19" fill="none" xmlns="http://www.w3.org/2000/svg">
<path d="M6.4033 0.0179443C6.1833 0.0179443 5.97599 0.134224 5.86176 0.328025C5.31176 1.25396 0.480225 9.44094 0.480225 12.5073C0.480225 15.832 3.13715 18.5366 6.4033 18.5366C9.66945 18.5366 12.3264 15.832 12.3264 12.5073C12.3264 9.44094 7.49484 1.25396 6.94484 0.328025C6.83061 0.134224 6.6233 0.0179443 6.4033 0.0179443ZM6.4033 17.2446C3.83522 17.2446 1.74946 15.1214 1.74946 12.5073C1.74946 10.4659 4.73215 4.84142 6.4033 1.93011C8.07445 4.84142 11.0571 10.4659 11.0571 12.5073C11.0571 15.1214 8.97138 17.2446 6.4033 17.2446Z" fill="white"/>
<path d="M4.72729 14.3083C4.72729 14.6657 5.01076 14.9543 5.36191 14.9543C7.57883 14.9543 9.38114 13.1196 9.38114 10.8629C9.38114 10.5055 9.09768 10.2169 8.74653 10.2169C8.39537 10.2169 8.11191 10.5055 8.11191 10.8629C8.11191 12.4047 6.87653 13.6623 5.36191 13.6623C5.01076 13.6623 4.72729 13.9508 4.72729 14.3083Z" fill="white"/>
</svg>
